<svg width="80" height="79" viewBox="0 0 80 79" fill="none" xmlns="http://www.w3.org/2000/svg">
<path d="M79.1158 9.26503C75.2062 4.70384 69.4504 1.77164 63.586 0.794235C60.871 0.35984 58.156 0.251251 55.441 0.739952C52.889 1.17435 50.3369 2.31465 48.0563 3.56355C46.9703 4.16085 45.9386 4.86675 44.9612 5.57265C43.7123 6.49575 42.4634 7.41883 41.3231 8.45053C39.1511 10.4596 37.7393 13.2289 36.8162 15.9982C35.8388 18.9304 35.4044 22.0255 35.2415 25.0663C35.0786 28.4329 35.1872 31.9623 35.8388 35.2746C36.5447 38.6955 38.228 41.9535 41.2145 43.9083C43.8209 45.5916 47.0789 45.8088 49.7939 44.2341C52.2374 42.8223 53.975 40.2702 54.7352 37.6096C55.5496 34.6774 55.0609 31.6366 53.5949 28.9759C50.4998 23.383 43.8209 20.0707 37.7393 19.039C34.5899 18.496 31.2233 18.496 28.1282 19.4734C24.8159 20.5594 22.1553 22.7314 20.2548 25.6636C18.2457 28.813 16.9968 32.451 15.8022 35.9262C14.499 39.6729 13.3587 43.4739 12.4899 47.3292C10.698 54.9855 9.66628 62.859 9.39478 70.7325C9.34048 72.6872 9.34048 74.5877 9.39478 76.5425C9.44908 78.2801 12.1641 78.2801 12.1098 76.5425C11.784 61.8816 14.3361 47.2206 19.5489 33.5371C20.6891 30.5506 21.938 27.3469 24.1643 25.012C26.1191 22.9486 28.7798 21.8083 31.5491 21.4825C34.4813 21.1567 37.4678 21.5368 40.2371 22.4056C42.8978 23.2201 45.5585 24.469 47.7305 26.2609C49.8482 27.9985 51.5858 30.2248 52.2374 32.9397C52.7804 35.166 52.1288 37.6638 50.8799 39.6186C49.631 41.4648 47.7305 42.768 45.5585 42.6594C42.8435 42.4965 40.7258 40.2702 39.5855 37.9353C38.1194 34.9488 38.0651 31.3107 37.9565 28.0528C37.9022 25.3921 38.1194 22.6771 38.6081 20.0164C39.1511 17.41 39.9656 14.8036 41.4317 12.523C42.8435 10.351 45.0698 8.83061 47.1332 7.31022C49.088 5.89842 51.26 4.86672 53.5405 4.05223C55.6582 3.23773 57.6673 3.07486 59.9479 3.12916C64.9978 3.29205 70.2649 5.13824 74.2831 8.34193C75.3691 9.21072 76.2922 10.1338 77.2153 11.1655C77.704 11.7085 78.6271 11.6542 79.1158 11.1655C79.6588 10.6225 79.6045 9.80803 79.1158 9.26503Z" fill="#9797A3"/>
<path d="M25.2502 52.9768C22.3724 59.0584 19.0058 64.8685 15.2591 70.4614C14.336 71.8189 13.3586 73.2307 12.3812 74.5339C12.0011 75.0226 11.621 75.6742 11.078 76.0543C10.6979 76.3258 10.5893 76.2172 10.3178 75.8371C9.88339 75.2941 9.55759 74.6968 9.23179 74.0995C8.7974 73.3936 8.41731 72.6334 8.03721 71.8732C7.27701 70.4614 6.62542 68.9953 6.02813 67.4749C4.72493 64.1083 3.74751 60.5788 3.15021 57.0493C3.04161 56.3434 2.11852 55.909 1.46693 56.1262C0.706728 56.3434 0.380922 57.0493 0.543823 57.8095C1.14112 61.2847 2.06422 64.7056 3.36742 68.0179C4.01902 69.7012 4.72492 71.3845 5.53941 72.9592C6.29961 74.4253 7.05981 76 8.03721 77.3032C9.12321 78.7693 10.8065 79.4209 12.4355 78.4435C13.9016 77.5204 14.879 75.7828 15.8564 74.4253C17.9741 71.4388 19.9832 68.3437 21.8294 65.1943C23.8928 61.6648 25.8476 58.081 27.5851 54.3886C27.9109 53.737 27.748 52.9226 27.0965 52.5425C26.4992 52.1081 25.5217 52.3253 25.2502 52.9768Z" fill="#9797A3"/>
</svg>
