<svg width="26" height="26" viewBox="0 0 26 26" fill="none" xmlns="http://www.w3.org/2000/svg">
<path d="M9 7.22222C9 5.99492 10.1193 5 11.5 5V5C12.8807 5 14 5.99492 14 7.22222V9H9V7.22222Z" fill="#6E7684"/>
<path d="M19.7778 13C21.0051 13 22 14.1193 22 15.5V15.5C22 16.8807 21.0051 18 19.7778 18L18 18L18 13L19.7778 13Z" fill="#6E7684"/>
<path fill-rule="evenodd" clip-rule="evenodd" d="M5 11.1667C5 9.97005 5.97005 9 7.16667 9H15.8333C17.03 9 18 9.97005 18 11.1667V19.8333C18 21.03 17.03 22 15.8333 22H13.6667V20.2667C13.6667 19.0701 12.6966 18.1 11.5 18.1C10.3034 18.1 9.33333 19.0701 9.33333 20.2667V22H7.16667C5.97005 22 5 21.03 5 19.8333V17.6667H6.73333C7.92995 17.6667 8.9 16.6966 8.9 15.5C8.9 14.3034 7.92995 13.3333 6.73333 13.3333H5V11.1667Z" fill="#6E7684"/>
</svg>
