<svg width="12" height="18" viewBox="0 0 12 18" fill="none" xmlns="http://www.w3.org/2000/svg">
<g clip-path="url(#clip0_436_70)">
<path d="M6 1.66602C5.46957 1.66602 4.96086 1.87673 4.58579 2.2518C4.21071 2.62687 4 3.13558 4 3.66602V8.99935C4 9.52978 4.21071 10.0385 4.58579 10.4136C4.96086 10.7886 5.46957 10.9993 6 10.9993C6.53043 10.9993 7.03914 10.7886 7.41421 10.4136C7.78929 10.0385 8 9.52978 8 8.99935V3.66602C8 3.13558 7.78929 2.62687 7.41421 2.2518C7.03914 1.87673 6.53043 1.66602 6 1.66602Z" stroke="#A9A9B1" stroke-width="1.5" stroke-linecap="round" stroke-linejoin="round"/>
<path d="M10.6654 7.66602V8.99935C10.6654 10.237 10.1737 11.424 9.29853 12.2992C8.42336 13.1744 7.23637 13.666 5.9987 13.666C4.76102 13.666 3.57404 13.1744 2.69887 12.2992C1.8237 11.424 1.33203 10.237 1.33203 8.99935V7.66602" stroke="#A9A9B1" stroke-width="1.5" stroke-linecap="round" stroke-linejoin="round"/>
<path d="M6 13.666V16.3327" stroke="#A9A9B1" stroke-width="1.5" stroke-linecap="round" stroke-linejoin="round"/>
<path d="M3.33203 16.334H8.66536" stroke="#A9A9B1" stroke-width="1.5" stroke-linecap="round" stroke-linejoin="round"/>
</g>
<defs>
<clipPath id="clip0_436_70">
<rect width="12" height="18" fill="white"/>
</clipPath>
</defs>
</svg>
