<svg width="16" height="16" viewBox="0 0 16 16" fill="none" xmlns="http://www.w3.org/2000/svg">
<g clip-path="url(#clip0_418_29)">
<path fill-rule="evenodd" clip-rule="evenodd" d="M4.22282 3.28348C4.15259 3.26172 4.07794 3.25 4.00056 3.25H2.8577C2.69287 3.25 2.53025 3.2715 2.37361 3.31295L3.81066 4.75H4.00056C4.08811 4.75 4.17216 4.735 4.25028 4.70742C4.32839 4.735 4.41245 4.75 4.5 4.75H5.68934L4.22282 3.28348ZM9.53627 6.47561V5.14286C9.53627 5.03867 9.49488 4.93874 9.42121 4.86507C9.34753 4.79139 9.24761 4.75 9.14341 4.75H7.81066L6.31066 3.25H9.14341C9.64543 3.25 10.1269 3.44943 10.4819 3.8044C10.8368 4.15938 11.0363 4.64084 11.0363 5.14286V6.56805L13.8467 4.53517C14.075 4.37004 14.3766 4.34679 14.6275 4.47496C14.8784 4.60313 15.0363 4.86111 15.0363 5.14286V11.6653C15.0363 11.7578 15.0195 11.8464 14.9889 11.9282L13.5363 10.4756V6.611L11.2973 8.23055C11.2961 8.23139 11.2949 8.23224 11.2937 8.23308L9.53627 6.47561ZM10.5085 9.5692L11.0028 10.0635C11.0246 10.1337 11.0363 10.2083 11.0363 10.2857V10.8571C11.0363 11.1719 10.9579 11.4787 10.8118 11.7512L9.53627 10.4756V10.2857C9.53627 9.8715 9.87206 9.53571 10.2863 9.53571C10.3637 9.53571 10.4383 9.54743 10.5085 9.5692ZM0.964844 5.14286C0.964844 4.82834 1.04312 4.52188 1.18889 4.24955L2.46484 5.5255V10.8571C2.46484 10.9613 2.50623 11.0613 2.57991 11.1349C2.65358 11.2086 2.75351 11.25 2.8577 11.25H8.18934L9.62663 12.6873C9.47025 12.7286 9.30794 12.75 9.14341 12.75H2.8577C2.35568 12.75 1.87423 12.5506 1.51925 12.1956C1.16427 11.8406 0.964844 11.3592 0.964844 10.8571V5.14286Z" fill="#A9A9B1"/>
<path d="M1.71484 1.71484L14.2863 14.2863" stroke="#A9A9B1" stroke-width="1.5" stroke-linecap="round" stroke-linejoin="round"/>
</g>
<defs>
<clipPath id="clip0_418_29">
<rect width="16" height="16" fill="white"/>
</clipPath>
</defs>
</svg>
