<svg width="16" height="16" viewBox="0 0 16 16" fill="none" xmlns="http://www.w3.org/2000/svg">
<path d="M10.2863 7.05143V10.8571C10.2863 11.1602 10.1659 11.4509 9.95154 11.6653C9.73721 11.8796 9.44652 12 9.14341 12H2.8577C2.5546 12 2.26391 11.8796 2.04958 11.6653C1.83525 11.4509 1.71484 11.1602 1.71484 10.8571V5.14286C1.71484 4.83975 1.83525 4.54906 2.04958 4.33474C2.26391 4.12041 2.5546 4 2.8577 4H4.00056M10.2863 7.05143V5.14286C10.2863 4.83975 10.1659 4.54906 9.95154 4.33474C9.73721 4.12041 9.44652 4 9.14341 4H4.5M10.2863 7.05143L10.8577 7.62286L14.2863 5.14286V11L10.8577 8.23669" stroke="#78C072" stroke-width="1.5" stroke-linecap="round" stroke-linejoin="round"/>
</svg>
