<svg width="16" height="16" viewBox="0 0 16 16" fill="none" xmlns="http://www.w3.org/2000/svg">
<path d="M7.89062 12.1484V14.5188" stroke="#3080F8" stroke-width="1.5" stroke-linecap="round" stroke-linejoin="round"/>
<path d="M5.66797 14.5195H10.1124" stroke="#3080F8" stroke-width="1.5" stroke-linecap="round" stroke-linejoin="round"/>
<path fill-rule="evenodd" clip-rule="evenodd" d="M11.0278 7.97321V7.99769C11.0278 8.53338 10.911 9.05318 10.6952 9.51929L11.803 10.6272C12.0502 10.2169 12.2374 9.77106 12.3596 9.305L11.0278 7.97321ZM12.5278 7.35189V6.8125C12.5278 6.39829 12.192 6.0625 11.7778 6.0625C11.6245 6.0625 11.482 6.10847 11.3633 6.18737L12.5278 7.35189ZM7.88889 11.3959C8.56577 11.3959 9.22696 11.1584 9.77113 10.7166L10.8356 11.7811C10.0136 12.4948 8.97465 12.8959 7.88889 12.8959C6.64239 12.8959 5.45755 12.3673 4.59188 11.4439C3.72774 10.5221 3.25 9.2817 3.25 7.99769V6.8125C3.25 6.39829 3.58579 6.0625 4 6.0625C4.41421 6.0625 4.75 6.39829 4.75 6.8125V7.99769C4.75 8.91399 5.0917 9.7838 5.68618 10.418C6.27913 11.0504 7.0726 11.3959 7.88889 11.3959Z" fill="#3080F8"/>
<path fill-rule="evenodd" clip-rule="evenodd" d="M5.47266 3.26215C5.47266 3.01168 5.50824 2.76382 5.57719 2.52652L6.97266 3.92199V5.80066L5.47266 4.30066V3.26215ZM5.47266 6.42199V8.00289C5.47266 8.65824 5.71627 9.29571 6.16366 9.77293C6.61258 10.2518 7.23219 10.5307 7.88932 10.5307C8.35667 10.5307 8.80505 10.3897 9.18654 10.1359L8.06265 9.01198C8.00538 9.02442 7.94731 9.03067 7.88932 9.03067C7.6624 9.03067 7.43416 8.93496 7.25796 8.74701C7.08023 8.55743 6.97266 8.29053 6.97266 8.00289V7.92199L5.47266 6.42199ZM8.80599 7.634L10.1278 8.95583C10.2449 8.65457 10.306 8.33097 10.306 8.00289V7.25532L8.80599 5.75532V7.634ZM8.80599 3.26215V3.634L10.306 5.134V3.26215C10.306 2.6068 10.0624 1.96933 9.61499 1.49212C9.16606 1.01326 8.54645 0.734375 7.88932 0.734375C7.35133 0.734375 6.83848 0.92131 6.42386 1.25186L7.50272 2.33073C7.62504 2.26672 7.7574 2.23437 7.88932 2.23437C8.11625 2.23437 8.34448 2.33008 8.52068 2.51803C8.69842 2.70761 8.80599 2.97451 8.80599 3.26215Z" fill="#3080F8"/>
<path d="M3 1L15 13" stroke="#3080F8" stroke-width="1.5" stroke-linecap="round" stroke-linejoin="round"/>
</svg>
