<svg width="16" height="16" viewBox="0 0 16 16" fill="none" xmlns="http://www.w3.org/2000/svg">
<path d="M7.88932 1.48242C7.4473 1.48242 7.02337 1.66972 6.71081 2.00312C6.39825 2.33652 6.22266 2.7887 6.22266 3.2602V8.00094C6.22266 8.47244 6.39825 8.92462 6.71081 9.25802C7.02337 9.59142 7.4473 9.77872 7.88932 9.77872C8.33135 9.77872 8.75527 9.59142 9.06783 9.25802C9.3804 8.92462 9.55599 8.47244 9.55599 8.00094V3.2602C9.55599 2.7887 9.3804 2.33652 9.06783 2.00312C8.75527 1.66972 8.33135 1.48242 7.88932 1.48242Z" stroke="#78C072" stroke-width="1.5" stroke-linecap="round" stroke-linejoin="round"/>
<path d="M11.7778 6.81445V7.99964C11.7778 9.0998 11.3681 10.1549 10.6387 10.9328C9.90944 11.7108 8.92029 12.1478 7.88889 12.1478C6.85749 12.1478 5.86834 11.7108 5.13903 10.9328C4.40972 10.1549 4 9.0998 4 7.99964V6.81445" stroke="#78C072" stroke-width="1.5" stroke-linecap="round" stroke-linejoin="round"/>
<path d="M7.89062 12.1484V14.5188" stroke="#78C072" stroke-width="1.5" stroke-linecap="round" stroke-linejoin="round"/>
<path d="M5.66797 14.5176H10.1124" stroke="#78C072" stroke-width="1.5" stroke-linecap="round" stroke-linejoin="round"/>
</svg>
