<?xml version="1.0" encoding="utf-8"?>
<!-- Generator: Adobe Illustrator 27.3.1, SVG Export Plug-In . SVG Version: 6.00 Build 0)  -->
<svg version="1.1" id="Layer_1" xmlns="http://www.w3.org/2000/svg" xmlns:xlink="http://www.w3.org/1999/xlink" x="0px" y="0px"
	 viewBox="0 0 748.57 180" style="enable-background:new 0 0 748.57 180;" xml:space="preserve">
<style type="text/css">
	.st0{fill:url(#SVGID_1_);}
	.st1{fill:url(#SVGID_00000085967842982202297410000004537203421974943402_);}
	.st2{fill:url(#SVGID_00000087373305226955608710000013878934437140643775_);}
	.st3{fill:url(#SVGID_00000000222063504351416810000014927768019358974873_);}
	.st4{fill:url(#SVGID_00000134930613617224438440000015889744035390338962_);}
	.st5{fill:url(#SVGID_00000100385150994616171060000004548906291759167395_);}
	.st6{fill:#141B52;}
</style>
<g>
	
		<linearGradient id="SVGID_1_" gradientUnits="userSpaceOnUse" x1="903.4029" y1="46.1636" x2="909.6614" y2="46.1636" gradientTransform="matrix(-1 0 0 1 999.1233 0)">
		<stop  offset="0" style="stop-color:#FFEB76"/>
		<stop  offset="0.4021" style="stop-color:#FFA410"/>
		<stop  offset="1" style="stop-color:#C95208"/>
	</linearGradient>
	<path class="st0" d="M89.46,46.16l0.03,0.03h6.23C93.51,46.13,91.41,46.14,89.46,46.16z"/>
	
		<linearGradient id="SVGID_00000129182924745225210860000005460226381528117680_" gradientUnits="userSpaceOnUse" x1="917.2854" y1="26.6785" x2="917.5594" y2="26.6785" gradientTransform="matrix(-1 0 0 1 999.1233 0)">
		<stop  offset="0" style="stop-color:#FFEB76"/>
		<stop  offset="0.4021" style="stop-color:#FFA410"/>
		<stop  offset="1" style="stop-color:#C95208"/>
	</linearGradient>
	<path style="fill:url(#SVGID_00000129182924745225210860000005460226381528117680_);" d="M81.56,26.68L81.56,26.68
		c0.09,0,0.18,0,0.27,0H81.56z"/>
	
		<linearGradient id="SVGID_00000031906259072776375370000007150046251141424026_" gradientUnits="userSpaceOnUse" x1="903.4029" y1="46.1636" x2="913.4733" y2="46.1636" gradientTransform="matrix(-1 0 0 1 999.1233 0)">
		<stop  offset="0" style="stop-color:#FFEB76"/>
		<stop  offset="0.4021" style="stop-color:#FFA410"/>
		<stop  offset="1" style="stop-color:#C95208"/>
	</linearGradient>
	<path style="fill:url(#SVGID_00000031906259072776375370000007150046251141424026_);" d="M85.65,46.18h10.07
		c-2.21-0.05-4.31-0.04-6.26-0.03C88.11,46.17,86.83,46.18,85.65,46.18z"/>
	
		<linearGradient id="SVGID_00000154420581984419792010000000829927300139310517_" gradientUnits="userSpaceOnUse" x1="897.1714" y1="140.0347" x2="833.5673" y2="18.2396" gradientTransform="matrix(-1 0 0 1 999.1233 0)">
		<stop  offset="0" style="stop-color:#FFEB76"/>
		<stop  offset="0.4021" style="stop-color:#FFA410"/>
		<stop  offset="1" style="stop-color:#C95208"/>
	</linearGradient>
	<path style="fill:url(#SVGID_00000154420581984419792010000000829927300139310517_);" d="M57.67,137.15
		c6.63,5.08,14.91,8.12,23.9,8.17c0.09,0.01,0.18,0.01,0.27,0.01h16.11l3.4-3.4l13.98-13.98l2.4-2.4l3.4-3.4l8.19-8.19l11.58-11.58
		v42.94h19.78V26.68c-5.46,0-10.41,2.21-13.98,5.79c-3.58,3.58-5.79,8.52-5.79,13.98v23.17l-11.58-11.58l-5.38-5.37
		c-5.42-3.19-11.47-4.83-17.38-5.67c-3.73-0.53-7.41-0.74-10.83-0.81h-6.23l11.85,11.85v0.01l8.19,8.19l11.58,11.58L129.3,86
		l-13.98,13.98l-5.79,5.79l-8.2,8.19c0,0.01,0,0.01,0,0.01l-11.85,11.85l-7.93,7.93C81.56,133.75,72.23,141.1,57.67,137.15z"/>
	
		<linearGradient id="SVGID_00000095299819704015035660000014175977605678271167_" gradientUnits="userSpaceOnUse" x1="928.281" y1="23.949" x2="901.892" y2="148.4509" gradientTransform="matrix(-1 0 0 1 999.1233 0)">
		<stop  offset="0" style="stop-color:#FFEB76"/>
		<stop  offset="0.4021" style="stop-color:#FFA410"/>
		<stop  offset="1" style="stop-color:#C95208"/>
	</linearGradient>
	<path style="fill:url(#SVGID_00000095299819704015035660000014175977605678271167_);" d="M42.02,66.5v39.01
		c0,4.45,0.73,8.73,2.08,12.73c2.56,7.59,7.34,14.16,13.57,18.92c14.56,3.95,23.9-3.4,23.9-3.4l7.93-7.93h-3.84
		c-11.08,0-20.39-7.55-23.07-17.79c-0.51-1.94-0.78-3.97-0.78-6.07V70.04c0-13.18,10.68-23.86,23.86-23.86
		c1.18,0,2.46-0.02,3.81-0.03c1.95-0.02,4.05-0.03,6.26,0.03c3.42,0.07,7.1,0.28,10.83,0.81c5.91,0.84,11.96,2.48,17.38,5.67
		l-2.82-2.82l-7.45-7.45L97.94,26.68H81.84c-0.09,0-0.18,0-0.27,0.01C59.7,26.82,42.02,44.59,42.02,66.5z"/>
	
		<linearGradient id="SVGID_00000065761694411766537050000018306658380034709673_" gradientUnits="userSpaceOnUse" x1="903.4029" y1="46.1636" x2="913.4733" y2="46.1636" gradientTransform="matrix(-1 0 0 1 999.1233 0)">
		<stop  offset="0" style="stop-color:#FFEB76"/>
		<stop  offset="0.4021" style="stop-color:#FFA410"/>
		<stop  offset="1" style="stop-color:#C95208"/>
	</linearGradient>
	<path style="fill:url(#SVGID_00000065761694411766537050000018306658380034709673_);" d="M85.65,46.18h10.07
		c-2.21-0.05-4.31-0.04-6.26-0.03C88.11,46.17,86.83,46.18,85.65,46.18z"/>
</g>
<g>
	<path class="st6" d="M202.82,113.06c-4.01,0-7.65-1.03-10.9-3.08c-3.25-2.05-5.84-4.79-7.78-8.21c-1.94-3.42-2.9-7.2-2.9-11.36
		s0.97-7.96,2.9-11.4s4.53-6.18,7.78-8.21c3.25-2.03,6.88-3.05,10.9-3.05c2.29,0,4.42,0.33,6.38,1c1.96,0.67,3.73,1.63,5.3,2.87
		V43.1h12.47v68.82h-10.75v-4.23c-1.62,1.67-3.58,2.99-5.88,3.94C208.06,112.58,205.55,113.06,202.82,113.06z M204.26,102.09
		c2.1,0,4.01-0.53,5.73-1.58c1.72-1.05,3.09-2.46,4.12-4.23c1.03-1.77,1.54-3.73,1.54-5.88s-0.51-4.11-1.54-5.88
		c-1.03-1.77-2.4-3.18-4.12-4.23c-1.72-1.05-3.63-1.58-5.73-1.58c-2.1,0-4.01,0.53-5.73,1.58c-1.72,1.05-3.09,2.46-4.12,4.23
		c-1.03,1.77-1.54,3.73-1.54,5.88s0.51,4.11,1.54,5.88c1.03,1.77,2.4,3.18,4.12,4.23C200.24,101.57,202.15,102.09,204.26,102.09z"/>
	<path class="st6" d="M258.74,113.35c-4.83,0-9.08-1-12.76-3.01c-3.68-2.01-6.55-4.77-8.6-8.28c-2.06-3.51-3.08-7.54-3.08-12.08
		c0-4.35,1-8.21,3.01-11.58c2.01-3.37,4.72-6.03,8.14-7.99c3.42-1.96,7.2-2.94,11.36-2.94c4.25,0,8.05,0.97,11.4,2.9
		c3.34,1.94,5.99,4.58,7.92,7.92c1.94,3.35,2.9,7.15,2.9,11.4v4.37h-26.24c-1.2,0-2.34-0.07-3.44-0.21c-1.1-0.14-2.2-0.31-3.3-0.5
		c0.57,2.87,1.99,5.2,4.27,6.99c2.27,1.79,5.17,2.69,8.71,2.69c2.72,0,5.17-0.55,7.35-1.65c2.17-1.1,3.95-2.46,5.34-4.09l2.72,11.18
		c-2.15,1.62-4.58,2.84-7.28,3.66C264.46,112.94,261.65,113.35,258.74,113.35z M245.76,85.82c2.39-0.53,4.73-0.79,7.03-0.79h7.6
		c1.34,0,2.6,0.05,3.8,0.14c1.19,0.1,2.32,0.26,3.37,0.5c-0.72-2.58-2.02-4.61-3.91-6.09c-1.89-1.48-4.22-2.22-6.99-2.22
		c-2.63,0-4.91,0.75-6.85,2.26C247.88,81.13,246.53,83.19,245.76,85.82z"/>
	<path class="st6" d="M285.91,111.92V68.9h11.18v4.73c1.53-2.01,3.43-3.54,5.7-4.59c2.27-1.05,4.65-1.58,7.13-1.58
		c2.53,0,4.92,0.53,7.17,1.58c2.25,1.05,4.13,2.58,5.66,4.59c1.67-2.01,3.75-3.54,6.24-4.59c2.48-1.05,5.18-1.58,8.1-1.58
		c3.06,0,5.93,0.71,8.6,2.11c2.68,1.41,4.85,3.47,6.52,6.17c1.67,2.7,2.51,5.99,2.51,9.86v26.31h-12.47V87.4
		c0-2.29-0.67-4.32-2.01-6.09c-1.34-1.77-3.27-2.65-5.81-2.65c-1.34,0-2.62,0.32-3.83,0.97c-1.22,0.65-2.2,1.6-2.94,2.87
		c-0.74,1.27-1.11,2.86-1.11,4.77v24.66h-12.47V87.4c0-1.53-0.3-2.96-0.9-4.3c-0.6-1.34-1.48-2.41-2.65-3.23
		c-1.17-0.81-2.59-1.22-4.27-1.22c-1.34,0-2.62,0.32-3.84,0.97c-1.22,0.65-2.2,1.6-2.94,2.87c-0.74,1.27-1.11,2.86-1.11,4.77v24.66
		H285.91z"/>
	<path class="st6" d="M384.4,113.35c-4.25,0-8.15-1.03-11.69-3.08c-3.54-2.05-6.34-4.83-8.42-8.32c-2.08-3.49-3.12-7.34-3.12-11.54
		c0-4.25,1.04-8.11,3.12-11.58c2.08-3.46,4.89-6.22,8.42-8.28c3.54-2.05,7.43-3.08,11.69-3.08c4.3,0,8.21,1.03,11.72,3.08
		c3.51,2.06,6.31,4.81,8.39,8.28c2.08,3.47,3.12,7.32,3.12,11.58c0,4.21-1.04,8.05-3.12,11.54c-2.08,3.49-4.87,6.26-8.39,8.32
		S388.71,113.35,384.4,113.35z M384.4,102.17c2.15,0,4.1-0.52,5.84-1.58c1.74-1.05,3.13-2.47,4.16-4.27
		c1.03-1.79,1.54-3.76,1.54-5.91c0-2.2-0.51-4.18-1.54-5.95c-1.03-1.77-2.41-3.18-4.16-4.23c-1.75-1.05-3.69-1.58-5.84-1.58
		c-2.15,0-4.1,0.53-5.84,1.58c-1.75,1.05-3.13,2.46-4.16,4.23c-1.03,1.77-1.54,3.75-1.54,5.95c0,2.15,0.51,4.12,1.54,5.91
		c1.03,1.79,2.41,3.21,4.16,4.27C380.31,101.64,382.25,102.17,384.4,102.17z"/>
	<path class="st6" d="M417.09,111.92V47.4H430v64.52H417.09z M452.86,111.92l-23.51-39.79L447.2,47.4h14.77l-17.92,24.52l23.94,40
		H452.86z"/>
	<path class="st6" d="M472.29,111.92V68.9h11.18v7.38c1.48-2.48,3.36-4.41,5.63-5.77c2.27-1.36,4.93-2.04,7.99-2.04l2.72,11.04
		c-0.91-0.29-1.94-0.43-3.08-0.43c-3.59,0-6.48,1.16-8.68,3.48c-2.2,2.32-3.3,5.63-3.3,9.93v19.43H472.29z"/>
	<path class="st6" d="M523.19,113.06c-3.97,0-7.58-1.03-10.83-3.08s-5.84-4.79-7.78-8.21c-1.94-3.42-2.9-7.2-2.9-11.36
		s0.97-7.96,2.9-11.4s4.53-6.18,7.78-8.21c3.25-2.03,6.86-3.05,10.83-3.05c2.77,0,5.3,0.49,7.6,1.47c2.29,0.98,4.25,2.33,5.88,4.05
		V68.9h10.75v43.01h-10.75v-4.37c-1.62,1.72-3.58,3.07-5.88,4.05S525.96,113.06,523.19,113.06z M524.69,102.09
		c2.1,0,4.01-0.53,5.74-1.58c1.72-1.05,3.09-2.46,4.12-4.23c1.03-1.77,1.54-3.73,1.54-5.88s-0.51-4.11-1.54-5.88
		c-1.03-1.77-2.4-3.18-4.12-4.23c-1.72-1.05-3.63-1.58-5.74-1.58c-2.1,0-4.01,0.53-5.73,1.58c-1.72,1.05-3.09,2.46-4.12,4.23
		c-1.03,1.77-1.54,3.73-1.54,5.88s0.51,4.11,1.54,5.88c1.03,1.77,2.4,3.18,4.12,4.23C520.68,101.57,522.59,102.09,524.69,102.09z"/>
	<path class="st6" d="M561.9,111.92V78.8h-8.03V68.9h8.24V57.94c0-5.11,1.49-9.01,4.48-11.69c2.99-2.68,6.68-4.01,11.08-4.01
		c1.62,0,3.19,0.18,4.7,0.54c1.5,0.36,2.83,0.92,3.98,1.69l-2.44,10.11c-1.43-1.77-3.11-2.65-5.02-2.65c-1.15,0-2.22,0.41-3.23,1.22
		c-1,0.81-1.5,2.32-1.5,4.52V68.9h8.53v9.89h-8.32v33.12H561.9z"/>
	<path class="st6" d="M594.16,111.92V78.8h-8.03V68.9h8.24V54.57h12.04V68.9h8.53v9.89h-8.32v33.12H594.16z"/>
	<path class="st6" d="M639.03,111.92l28.46-66.81h0.14l28.46,66.81h-12.98l-4.8-11.47h-21.94l-4.8,11.47H639.03z M660.68,90.12
		h13.33l-2.8-6.6c-0.76-1.77-1.47-3.48-2.11-5.13c-0.65-1.65-1.25-3.57-1.83-5.77c-0.53,2.15-1.1,4.06-1.72,5.73
		c-0.62,1.67-1.31,3.39-2.08,5.16L660.68,90.12z"/>
	<path class="st6" d="M704.26,111.92V47.4h13.33v64.52H704.26z"/>
</g>
<g>
</g>
<g>
</g>
<g>
</g>
<g>
</g>
<g>
</g>
<g>
</g>
<g>
</g>
<g>
</g>
<g>
</g>
<g>
</g>
<g>
</g>
<g>
</g>
<g>
</g>
<g>
</g>
<g>
</g>
</svg>
