<svg width="153" height="31" viewBox="0 0 153 31" fill="none" xmlns="http://www.w3.org/2000/svg">
<g opacity="0.2">
<circle opacity="0.3" cx="15.5" cy="15.5" r="15.5" fill="#29292F"/>
<circle cx="15.5" cy="15.5" r="8.5" fill="#29292F"/>
<path d="M57.835 18.595C57.835 21.999 55.121 24.23 50.82 24.23C46.519 24.23 43.759 21.953 43.46 18.296H47.853C47.899 19.86 48.934 20.849 50.728 20.849C52.223 20.849 53.212 20.274 53.212 19.239C53.212 18.526 52.499 17.997 51.533 17.813L48.52 17.238C45.875 16.732 44.127 15.191 44.127 12.523C44.127 9.441 46.841 7.279 50.544 7.279C54.477 7.279 57.306 9.533 57.559 13.098H53.166C53.051 11.603 52.039 10.637 50.59 10.637C49.302 10.637 48.52 11.327 48.52 12.224C48.52 12.96 49.256 13.397 50.13 13.558L53.327 14.179C56.271 14.754 57.835 16.203 57.835 18.595ZM65.1921 24.23C61.5121 24.23 58.9591 21.585 58.9591 17.813C58.9591 14.133 61.6271 11.396 65.1921 11.396C68.5961 11.396 71.1261 13.696 71.4711 17.146H67.2851C67.2161 15.789 66.4111 14.938 65.2151 14.938C63.8351 14.938 63.0301 15.996 63.0301 17.813C63.0301 19.676 63.8121 20.711 65.2151 20.711C66.4341 20.711 67.1931 19.883 67.2851 18.48H71.4711C71.1261 22.022 68.7111 24.23 65.1921 24.23ZM77.1956 18.296V24H73.2626V11.626H76.8736V13.811C77.8166 12.362 79.7716 11.534 81.7496 11.534V15.628C78.9666 15.352 77.1956 15.559 77.1956 18.296ZM88.7344 24.207C84.9164 24.207 82.3634 21.631 82.3634 17.79C82.3634 14.087 85.0314 11.396 88.7114 11.396C92.8054 11.396 95.5424 14.731 94.8294 18.802H86.4344C86.6414 20.366 87.3774 21.148 88.6424 21.148C89.7464 21.148 90.4824 20.688 90.8274 19.791H94.7604C94.0014 22.62 91.8164 24.207 88.7344 24.207ZM88.6194 14.294C87.4464 14.294 86.7564 14.961 86.4804 16.341H90.6204C90.5744 15.099 89.7924 14.294 88.6194 14.294ZM102.099 24.207C98.2807 24.207 95.7277 21.631 95.7277 17.79C95.7277 14.087 98.3957 11.396 102.076 11.396C106.17 11.396 108.907 14.731 108.194 18.802H99.7987C100.006 20.366 100.742 21.148 102.007 21.148C103.111 21.148 103.847 20.688 104.192 19.791H108.125C107.366 22.62 105.181 24.207 102.099 24.207ZM101.984 14.294C100.811 14.294 100.121 14.961 99.8447 16.341H103.985C103.939 15.099 103.157 14.294 101.984 14.294ZM114.032 17.491V24H110.099V11.626H113.71V13.121C114.676 12.04 115.826 11.396 117.39 11.396C119.828 11.396 121.553 13.029 121.553 16.042V24H117.62V17.353C117.62 15.789 117.068 14.938 115.872 14.938C114.906 14.938 114.032 15.628 114.032 17.491ZM128.486 8.751C128.486 10.039 127.451 10.982 125.956 10.982C124.461 10.982 123.426 10.039 123.426 8.751C123.426 7.44 124.461 6.497 125.956 6.497C127.451 6.497 128.486 7.44 128.486 8.751ZM127.957 24H124.024V11.626H127.957V24ZM138.841 20.136V23.563C137.967 24.046 137.139 24.23 136.035 24.23C133.252 24.23 131.619 22.574 131.619 19.745V15.053H129.319V11.626H131.619V7.992H135.552V11.626H138.933V15.053H135.552V18.825C135.552 20.021 136.058 20.573 137.139 20.573C137.783 20.573 138.404 20.412 138.841 20.136ZM152.581 11.626L146.693 28.439H142.392L144.117 23.862L139.287 11.626H143.565L146.233 19.285L148.625 11.626H152.581Z" fill="#29292F"/>
</g>
</svg>
