<svg width="126" height="29" viewBox="0 0 126 29" fill="none" xmlns="http://www.w3.org/2000/svg">
<path d="M114.069 27.7574V24.9179H115.94C117.085 24.9179 117.569 24.5657 118.009 23.3771L118.208 22.8488L113.783 11.4688H117.415L119.814 18.5345L122.478 11.4688H126L120.409 24.8739C119.484 27.119 118.252 28.0655 116.315 28.0655C115.5 28.0655 114.73 27.9555 114.069 27.7574Z" fill="#29292F"/>
<path d="M112.547 22.4723H109.158V14.284H107.066V11.4665H109.158V8.05469H112.547V11.4665H114.638V14.284H112.547V22.4723Z" fill="#29292F"/>
<path d="M105.052 9.75048C103.974 9.75048 103.115 8.89202 103.115 7.81345C103.115 6.73488 103.974 5.89844 105.052 5.89844C106.109 5.89844 106.967 6.73488 106.967 7.81345C106.967 8.89202 106.109 9.75048 105.052 9.75048ZM103.379 22.4732V11.4674H106.769V22.4732H103.379Z" fill="#29292F"/>
<path d="M94.63 22.4713H91.2402V11.4655H94.4319L94.652 12.6101C95.3344 11.6636 96.5891 11.1133 98.0198 11.1133C100.639 11.1133 102.158 12.7862 102.158 15.6697V22.4713H98.7682V16.4841C98.7682 15.0974 97.9978 14.1949 96.8312 14.1949C95.4885 14.1949 94.63 15.0754 94.63 16.4401V22.4713Z" fill="#29292F"/>
<path d="M84.8963 22.7575C81.5726 22.7575 79.1953 20.3362 79.1953 16.9464C79.1953 13.5126 81.5065 11.1133 84.8303 11.1133C88.2861 11.1133 90.4433 13.3805 90.4433 16.9684V17.8268L82.453 17.8709C82.6511 19.3236 83.4656 20.006 84.9624 20.006C86.239 20.006 87.1415 19.5438 87.3837 18.7513H90.4873C90.0911 21.1946 87.9119 22.7575 84.8963 22.7575ZM84.8523 13.8647C83.5096 13.8647 82.7612 14.4591 82.4971 15.7798H87.0755C87.0755 14.6131 86.217 13.8647 84.8523 13.8647Z" fill="#29292F"/>
<path d="M73.4452 22.7575C70.1214 22.7575 67.7441 20.3362 67.7441 16.9464C67.7441 13.5126 70.0554 11.1133 73.3791 11.1133C76.835 11.1133 78.9921 13.3805 78.9921 16.9684V17.8268L71.0019 17.8709C71.2 19.3236 72.0144 20.006 73.5112 20.006C74.7879 20.006 75.6904 19.5438 75.9325 18.7513H79.0361C78.6399 21.1946 76.4608 22.7575 73.4452 22.7575ZM73.4011 13.8647C72.0584 13.8647 71.31 14.4591 71.0459 15.7798H75.6243C75.6243 14.6131 74.7659 13.8647 73.4011 13.8647Z" fill="#29292F"/>
<path d="M68.158 11.4666V14.6583H67.0794C65.1424 14.6583 63.9757 15.5167 63.9757 17.6959V22.4724H60.5859V11.4886H63.7776L63.9537 13.1175C64.416 12.0389 65.3845 11.3125 66.8593 11.3125C67.2555 11.3125 67.6957 11.3565 68.158 11.4666Z" fill="#29292F"/>
<path d="M48.6719 16.9244C48.6719 13.5346 51.0051 11.1133 54.3069 11.1133C57.5646 11.1133 59.7217 12.8962 59.9419 15.7798H56.53C56.2879 14.6792 55.6056 14.1509 54.4389 14.1509C53.0082 14.1509 52.0837 15.2295 52.0837 16.9244C52.0837 18.6853 52.9421 19.7198 54.3949 19.7198C55.5835 19.7198 56.3099 19.1696 56.53 18.091H59.9419C59.7217 20.8645 57.4765 22.7575 54.3949 22.7575C50.9171 22.7575 48.6719 20.4462 48.6719 16.9244Z" fill="#29292F"/>
<path d="M36.5781 10.9157C36.5781 7.96611 39.0654 5.875 42.5652 5.875C46.0651 5.875 48.2663 7.81203 48.2663 10.8937H44.7224C44.7224 9.74905 43.8639 9.04468 42.5212 9.04468C41.0684 9.04468 40.144 9.70503 40.144 10.7836C40.144 11.7741 40.6502 12.2584 41.7948 12.5005L44.2381 13.0068C47.1437 13.6011 48.5304 14.9878 48.5304 17.5632C48.5304 20.7109 46.0651 22.758 42.3231 22.758C38.6912 22.758 36.3359 20.7989 36.3359 17.7393H39.8798C39.8798 18.9279 40.7603 19.5883 42.3451 19.5883C43.952 19.5883 44.9645 18.9499 44.9645 17.9154C44.9645 17.0129 44.5463 16.5507 43.4677 16.3305L40.9804 15.8243C38.0749 15.23 36.5781 13.5791 36.5781 10.9157Z" fill="#29292F"/>
<g opacity="0.3">
<circle cx="14.5" cy="14.5" r="14.5" fill="#9D9D9D"/>
<circle cx="14.5" cy="14.5" r="14.5" fill="url(#paint0_radial_3031_1227)"/>
</g>
<circle cx="14.5007" cy="14.5007" r="9.22727" fill="#9D9D9D"/>
<circle cx="14.5007" cy="14.5007" r="9.22727" fill="url(#paint1_radial_3031_1227)"/>
<defs>
<radialGradient id="paint0_radial_3031_1227" cx="0" cy="0" r="1" gradientUnits="userSpaceOnUse" gradientTransform="translate(10.2785) rotate(81.7628) scale(34.5116 34.2998)">
<stop offset="0.231286" stop-color="#2BAEF8"/>
<stop offset="0.463542" stop-color="#3582F6"/>
<stop offset="0.744792" stop-color="#486DEF"/>
<stop offset="1" stop-color="#7B9AEA"/>
</radialGradient>
<radialGradient id="paint1_radial_3031_1227" cx="0" cy="0" r="1" gradientUnits="userSpaceOnUse" gradientTransform="translate(11.8143 5.27344) rotate(81.7628) scale(21.9619 21.8271)">
<stop offset="0.231286" stop-color="#2BAEF8"/>
<stop offset="0.463542" stop-color="#3582F6"/>
<stop offset="0.744792" stop-color="#486DEF"/>
<stop offset="1" stop-color="#7B9AEA"/>
</radialGradient>
</defs>
</svg>
