<svg xmlns="http://www.w3.org/2000/svg" width="16" height="16" fill="none" viewBox="0 0 16 16">
  <path stroke="currentColor" stroke-linecap="round" stroke-linejoin="round" stroke-width="2" d="M2 4.586h11.52m-8.319 0V3.293a1.3 1.3 0 0 1 .375-.914c.24-.243.566-.379.905-.379h2.56c.34 0 .665.136.905.379a1.3 1.3 0 0 1 .375.914v1.293m1.92 0v9.05a1.3 1.3 0 0 1-.375.915c-.24.242-.565.378-.905.378h-6.4c-.34 0-.665-.136-.905-.378a1.3 1.3 0 0 1-.375-.915v-9.05h8.96ZM6.48 7.818v3.88m2.563-3.88v3.88"/>
</svg>
