<svg xmlns="http://www.w3.org/2000/svg" width="16" height="16" fill="currentColor" viewBox="0 0 16 16">
  <path stroke="currentColor" d="M13.376 2.224a2.139 2.139 0 0 0-3.02 0L8.527 4.052l-.238-.238a1.564 1.564 0 0 0-1.113-.461 1.568 1.568 0 0 0-1.574 1.574c0 .42.164.815.46 1.113l.557.556-5.325 5.326a1.688 1.688 0 0 0 0 2.385 1.683 1.683 0 0 0 2.384 0L9.004 8.98l.557.556c.297.297.692.461 1.113.461.42 0 .815-.164 1.112-.46.298-.298.461-.693.461-1.114 0-.42-.163-.815-.46-1.113l-.24-.238 1.83-1.829a2.138 2.138 0 0 0 0-3.02ZM3.202 13.83a1.013 1.013 0 0 1-1.431 0 1.013 1.013 0 0 1 0-1.431l5.325-5.326 1.431 1.43-5.325 5.327Z"/>
</svg>
