<svg xmlns="http://www.w3.org/2000/svg" width="16" height="16" fill="none" viewBox="0 0 16 16">
  <path stroke="currentColor" stroke-linecap="round" stroke-linejoin="round" stroke-width="2" d="M8.334 1.334c-.505 0-.99.192-1.346.533a1.777 1.777 0 0 0-.558 1.285v4.849c0 .482.2.944.558 1.285a1.95 1.95 0 0 0 1.346.533c.506 0 .99-.192 1.347-.533.358-.34.558-.803.558-1.285V3.152c0-.482-.2-.945-.558-1.285a1.952 1.952 0 0 0-1.347-.533v0Z"/>
  <path stroke="currentColor" stroke-linecap="round" stroke-linejoin="round" stroke-width="2" d="M12.78 6.787V8a4.147 4.147 0 0 1-1.302 3 4.554 4.554 0 0 1-3.143 1.243A4.554 4.554 0 0 1 5.192 11a4.147 4.147 0 0 1-1.301-3V6.787m4.441 5.455v2.424m-2.539 0h5.08"/>
</svg>
