<svg width="20" height="20" viewBox="0 0 20 20" fill="none" xmlns="http://www.w3.org/2000/svg">
<path fill-rule="evenodd" clip-rule="evenodd" d="M5.19939 4.89453H4.1022L5.58101 6.37334C5.61949 6.36399 5.6568 6.35167 5.69271 6.33664C5.78177 6.37393 5.87956 6.39453 5.98216 6.39453H6.69939L5.19939 4.89453ZM11.939 8.09858V6.96921C11.939 6.81679 11.8784 6.67062 11.7707 6.56285C11.6629 6.45508 11.5167 6.39453 11.3643 6.39453H10.2349L8.73492 4.89453H11.3643C11.9145 4.89453 12.4422 5.11311 12.8313 5.50219C13.2204 5.89127 13.439 6.41897 13.439 6.96921V8.8547L16.8858 6.36152C17.1141 6.19639 17.4156 6.17314 17.6665 6.30131C17.9174 6.42948 18.0753 6.68746 18.0753 6.96921V14.2349L16.5753 12.7349V8.43734L14.0816 10.2412L11.939 8.09858ZM12.5073 12.2024L13.439 13.1341V13.5926C13.439 13.7841 13.4125 13.9728 13.3616 14.1539L11.9602 12.7525C12.0258 12.4824 12.2377 12.2695 12.5073 12.2024ZM2.00391 6.96921C2.00391 6.77809 2.03028 6.58969 2.081 6.40887L3.50391 7.83178V13.5926C3.50391 13.745 3.56445 13.8912 3.67222 13.9989C3.78 14.1067 3.92617 14.1673 4.07858 14.1673H9.83939L11.3394 15.6673H4.07858C3.52834 15.6673 3.00064 15.4487 2.61156 15.0596C2.22249 14.6705 2.00391 14.1428 2.00391 13.5926V6.96921Z" fill="white"/>
<path d="M2.75 3L17.3214 17.5714" stroke="white" stroke-width="1.5" stroke-linecap="round" stroke-linejoin="round"/>
</svg>
