<svg width="16" height="16" viewBox="0 0 16 16" fill="none" xmlns="http://www.w3.org/2000/svg">
<g clip-path="url(#clip0_574_941)">
<path fill-rule="evenodd" clip-rule="evenodd" d="M8 0C3.58172 0 0 3.58172 0 8C0 12.4183 3.58172 16 8 16C12.4183 16 16 12.4183 16 8C16 3.58172 12.4183 0 8 0ZM6.33203 5.33398H9.66536C10.2176 5.33398 10.6654 5.7817 10.6654 6.33398V9.66732C10.6654 10.2196 10.2176 10.6673 9.66537 10.6673H6.33203C5.77975 10.6673 5.33203 10.2196 5.33203 9.66732V6.33399C5.33203 5.7817 5.77975 5.33398 6.33203 5.33398Z" fill="#29292F"/>
</g>
<defs>
<clipPath id="clip0_574_941">
<rect width="16" height="16" fill="white"/>
</clipPath>
</defs>
</svg>
