<svg width="44" height="30" viewBox="0 0 44 30" fill="none" xmlns="http://www.w3.org/2000/svg">
<path d="M2 1H42C42.5523 1 43 1.44772 43 2V28C43 28.5523 42.5523 29 42 29H2C1.44772 29 1 28.5523 1 28V2C1 1.44772 1.44772 1 2 1Z" fill="#ECF5FF" stroke="#2D89F4" stroke-width="2"/>
<g clip-path="url(#clip0)">
<path d="M29.965 29.2497V25.9307C29.965 24.8241 29.5255 23.7629 28.743 22.9804C27.9605 22.1979 26.8992 21.7583 25.7926 21.7583H17.4478C16.3412 21.7583 15.2799 22.1979 14.4975 22.9804C13.715 23.7629 13.2754 24.8241 13.2754 25.9307V29.2497" fill="#2D89F4"/>
<path d="M29.965 29.2497V25.9307C29.965 24.8241 29.5255 23.7629 28.743 22.9804C27.9605 22.1979 26.8992 21.7583 25.7926 21.7583H17.4478C16.3412 21.7583 15.2799 22.1979 14.4975 22.9804C13.715 23.7629 13.2754 24.8241 13.2754 25.9307V29.2497" stroke="#2D89F4" stroke-linecap="round" stroke-linejoin="round"/>
<path d="M21.6209 19.1297C24.6626 19.1297 27.1285 16.6638 27.1285 13.6221C27.1285 10.5803 24.6626 8.1145 21.6209 8.1145C18.5791 8.1145 16.1133 10.5803 16.1133 13.6221C16.1133 16.6638 18.5791 19.1297 21.6209 19.1297Z" fill="#2D89F4" stroke="#2D89F4" stroke-linecap="round" stroke-linejoin="round"/>
</g>
<defs>
<clipPath id="clip0">
<rect width="19" height="22" fill="white" transform="translate(12 7.3457)"/>
</clipPath>
</defs>
</svg>
