<svg width="22" height="22" viewBox="0 0 22 22" fill="none" xmlns="http://www.w3.org/2000/svg">
<path d="M11.0007 11.9166C11.5069 11.9166 11.9173 11.5062 11.9173 10.9999C11.9173 10.4937 11.5069 10.0833 11.0007 10.0833C10.4944 10.0833 10.084 10.4937 10.084 10.9999C10.084 11.5062 10.4944 11.9166 11.0007 11.9166Z" fill="#69708A" stroke="#69708A" stroke-width="2" stroke-linecap="round" stroke-linejoin="round"/>
<path d="M17.4167 11.9166C17.9229 11.9166 18.3333 11.5062 18.3333 10.9999C18.3333 10.4937 17.9229 10.0833 17.4167 10.0833C16.9104 10.0833 16.5 10.4937 16.5 10.9999C16.5 11.5062 16.9104 11.9166 17.4167 11.9166Z" fill="#69708A" stroke="#69708A" stroke-width="2" stroke-linecap="round" stroke-linejoin="round"/>
<path d="M4.58268 11.9166C5.08894 11.9166 5.49935 11.5062 5.49935 10.9999C5.49935 10.4937 5.08894 10.0833 4.58268 10.0833C4.07642 10.0833 3.66602 10.4937 3.66602 10.9999C3.66602 11.5062 4.07642 11.9166 4.58268 11.9166Z" fill="#69708A" stroke="#69708A" stroke-width="2" stroke-linecap="round" stroke-linejoin="round"/>
</svg>
