<svg xmlns="http://www.w3.org/2000/svg" width="16" height="16" fill="none" viewBox="0 0 16 16">
  <path fill="#6E7684" fill-rule="evenodd" d="M2 3a2 2 0 0 0-2 2v6a2 2 0 0 0 2 2h12a2 2 0 0 0 2-2V5a2 2 0 0 0-2-2H2Zm2.773 2.955c-1.11 0-1.746.835-1.746 2.093 0 1.297.72 2.005 1.754 2.005.973 0 1.563-.557 1.563-1.488v-.024H4.651v-.9h2.605v3.271h-.828l-.06-.668c-.307.446-.943.756-1.702.756C3.096 11 2 9.814 2 8.024 2 6.257 3.11 5 4.796 5c1.28 0 2.268.772 2.43 1.958H6.19c-.176-.685-.743-1.003-1.418-1.003Zm4.523-.86v5.817h-.981V5.095h.98Zm2.222 3.438h2.084v-.915h-2.084V6.034H14v-.939h-3.463v5.817h.98V8.534Z" clip-rule="evenodd"/>
</svg>
