<svg width="16" height="17" viewBox="0 0 16 17" fill="none" xmlns="http://www.w3.org/2000/svg">
<g clip-path="url(#clip0_3375_567)">
<path d="M7.9987 14.6654C11.6806 14.6654 14.6654 11.6806 14.6654 7.9987C14.6654 4.3168 11.6806 1.33203 7.9987 1.33203C4.3168 1.33203 1.33203 4.3168 1.33203 7.9987C1.33203 11.6806 4.3168 14.6654 7.9987 14.6654Z" stroke="#387EF7" stroke-width="2" stroke-linecap="round" stroke-linejoin="round"/>
<path d="M6.05859 6.00038C6.21533 5.55482 6.5247 5.17912 6.9319 4.9398C7.3391 4.70049 7.81786 4.61301 8.28338 4.69285C8.7489 4.7727 9.17114 5.01473 9.47531 5.37606C9.77949 5.7374 9.94596 6.19473 9.94526 6.66705C9.94526 8.00038 7.94526 8.66705 7.94526 8.66705" stroke="#387EF7" stroke-width="2" stroke-linecap="round" stroke-linejoin="round"/>
<path d="M8 11.332H8.00583" stroke="#387EF7" stroke-width="2" stroke-linecap="round" stroke-linejoin="round"/>
</g>
<defs>
<clipPath id="clip0_3375_567">
<rect width="16" height="16" fill="white"/>
</clipPath>
</defs>
</svg>
