<svg width="123" height="89" viewBox="0 0 123 89" fill="none" xmlns="http://www.w3.org/2000/svg">
<path d="M37.5273 87H20.5938V21.7266L0.378906 27.9961V14.2266L35.7109 1.57031H37.5273V87ZM122.723 51.7266C122.723 63.5234 120.281 72.5469 115.398 78.7969C110.516 85.0469 103.367 88.1719 93.9531 88.1719C84.6562 88.1719 77.5469 85.1055 72.625 78.9727C67.7031 72.8398 65.1836 64.0508 65.0664 52.6055V36.9023C65.0664 24.9883 67.5273 15.9453 72.4492 9.77344C77.4102 3.60156 84.5391 0.515625 93.8359 0.515625C103.133 0.515625 110.242 3.58203 115.164 9.71484C120.086 15.8086 122.605 24.5781 122.723 36.0234V51.7266ZM105.789 34.5C105.789 27.4297 104.812 22.293 102.859 19.0898C100.945 15.8477 97.9375 14.2266 93.8359 14.2266C89.8516 14.2266 86.9023 15.7695 84.9883 18.8555C83.1133 21.9023 82.1172 26.6875 82 33.2109V53.9531C82 60.9062 82.9375 66.082 84.8125 69.4805C86.7266 72.8398 89.7734 74.5195 93.9531 74.5195C98.0938 74.5195 101.082 72.8984 102.918 69.6562C104.754 66.4141 105.711 61.4531 105.789 54.7734V34.5Z" fill="white"/>
<path d="M37.5273 87H20.5938V21.7266L0.378906 27.9961V14.2266L35.7109 1.57031H37.5273V87ZM122.723 51.7266C122.723 63.5234 120.281 72.5469 115.398 78.7969C110.516 85.0469 103.367 88.1719 93.9531 88.1719C84.6562 88.1719 77.5469 85.1055 72.625 78.9727C67.7031 72.8398 65.1836 64.0508 65.0664 52.6055V36.9023C65.0664 24.9883 67.5273 15.9453 72.4492 9.77344C77.4102 3.60156 84.5391 0.515625 93.8359 0.515625C103.133 0.515625 110.242 3.58203 115.164 9.71484C120.086 15.8086 122.605 24.5781 122.723 36.0234V51.7266ZM105.789 34.5C105.789 27.4297 104.812 22.293 102.859 19.0898C100.945 15.8477 97.9375 14.2266 93.8359 14.2266C89.8516 14.2266 86.9023 15.7695 84.9883 18.8555C83.1133 21.9023 82.1172 26.6875 82 33.2109V53.9531C82 60.9062 82.9375 66.082 84.8125 69.4805C86.7266 72.8398 89.7734 74.5195 93.9531 74.5195C98.0938 74.5195 101.082 72.8984 102.918 69.6562C104.754 66.4141 105.711 61.4531 105.789 54.7734V34.5Z" fill="white"/>
</svg>
