<svg width="61" height="87" viewBox="0 0 61 87" fill="none" xmlns="http://www.w3.org/2000/svg">
<path d="M60.3242 87H1.84766V75.3984L29.4453 45.9844C33.2344 41.8438 36.0273 38.2305 37.8242 35.1445C39.6602 32.0586 40.5781 29.1289 40.5781 26.3555C40.5781 22.5664 39.6211 19.5977 37.707 17.4492C35.793 15.2617 33.0586 14.168 29.5039 14.168C25.6758 14.168 22.6484 15.4961 20.4219 18.1523C18.2344 20.7695 17.1406 24.2266 17.1406 28.5234H0.148438C0.148438 23.3281 1.37891 18.582 3.83984 14.2852C6.33984 9.98828 9.85547 6.62891 14.3867 4.20703C18.918 1.74609 24.0547 0.515625 29.7969 0.515625C38.5859 0.515625 45.4023 2.625 50.2461 6.84375C55.1289 11.0625 57.5703 17.0195 57.5703 24.7148C57.5703 28.9336 56.4766 33.2305 54.2891 37.6055C52.1016 41.9805 48.3516 47.0781 43.0391 52.8984L23.6445 73.3477H60.3242V87Z" fill="white"/>
<path d="M60.3242 87H1.84766V75.3984L29.4453 45.9844C33.2344 41.8438 36.0273 38.2305 37.8242 35.1445C39.6602 32.0586 40.5781 29.1289 40.5781 26.3555C40.5781 22.5664 39.6211 19.5977 37.707 17.4492C35.793 15.2617 33.0586 14.168 29.5039 14.168C25.6758 14.168 22.6484 15.4961 20.4219 18.1523C18.2344 20.7695 17.1406 24.2266 17.1406 28.5234H0.148438C0.148438 23.3281 1.37891 18.582 3.83984 14.2852C6.33984 9.98828 9.85547 6.62891 14.3867 4.20703C18.918 1.74609 24.0547 0.515625 29.7969 0.515625C38.5859 0.515625 45.4023 2.625 50.2461 6.84375C55.1289 11.0625 57.5703 17.0195 57.5703 24.7148C57.5703 28.9336 56.4766 33.2305 54.2891 37.6055C52.1016 41.9805 48.3516 47.0781 43.0391 52.8984L23.6445 73.3477H60.3242V87Z" fill="white"/>
</svg>
