<svg width="61" height="89" viewBox="0 0 61 89" fill="none" xmlns="http://www.w3.org/2000/svg">
<path d="M20.0742 36.8438H29.0977C33.3945 36.8438 36.5781 35.7695 38.6484 33.6211C40.7188 31.4727 41.7539 28.6211 41.7539 25.0664C41.7539 21.6289 40.7188 18.9531 38.6484 17.0391C36.6172 15.125 33.8047 14.168 30.2109 14.168C26.9688 14.168 24.2539 15.0664 22.0664 16.8633C19.8789 18.6211 18.7852 20.9258 18.7852 23.7773H1.85156C1.85156 19.3242 3.04297 15.3398 5.42578 11.8242C7.84766 8.26953 11.207 5.49609 15.5039 3.50391C19.8398 1.51172 24.6055 0.515625 29.8008 0.515625C38.8242 0.515625 45.8945 2.68359 51.0117 7.01953C56.1289 11.3164 58.6875 17.2539 58.6875 24.832C58.6875 28.7383 57.4961 32.332 55.1133 35.6133C52.7305 38.8945 49.6055 41.4141 45.7383 43.1719C50.543 44.8906 54.1172 47.4688 56.4609 50.9062C58.8438 54.3438 60.0352 58.4062 60.0352 63.0938C60.0352 70.6719 57.2617 76.7461 51.7148 81.3164C46.207 85.8867 38.9023 88.1719 29.8008 88.1719C21.2852 88.1719 14.3125 85.9258 8.88281 81.4336C3.49219 76.9414 0.796875 71.0039 0.796875 63.6211H17.7305C17.7305 66.8242 18.9219 69.4414 21.3047 71.4727C23.7266 73.5039 26.6953 74.5195 30.2109 74.5195C34.2344 74.5195 37.3789 73.4648 39.6445 71.3555C41.9492 69.207 43.1016 66.375 43.1016 62.8594C43.1016 54.3438 38.4141 50.0859 29.0391 50.0859H20.0742V36.8438Z" fill="white"/>
<path d="M20.0742 36.8438H29.0977C33.3945 36.8438 36.5781 35.7695 38.6484 33.6211C40.7188 31.4727 41.7539 28.6211 41.7539 25.0664C41.7539 21.6289 40.7188 18.9531 38.6484 17.0391C36.6172 15.125 33.8047 14.168 30.2109 14.168C26.9688 14.168 24.2539 15.0664 22.0664 16.8633C19.8789 18.6211 18.7852 20.9258 18.7852 23.7773H1.85156C1.85156 19.3242 3.04297 15.3398 5.42578 11.8242C7.84766 8.26953 11.207 5.49609 15.5039 3.50391C19.8398 1.51172 24.6055 0.515625 29.8008 0.515625C38.8242 0.515625 45.8945 2.68359 51.0117 7.01953C56.1289 11.3164 58.6875 17.2539 58.6875 24.832C58.6875 28.7383 57.4961 32.332 55.1133 35.6133C52.7305 38.8945 49.6055 41.4141 45.7383 43.1719C50.543 44.8906 54.1172 47.4688 56.4609 50.9062C58.8438 54.3438 60.0352 58.4062 60.0352 63.0938C60.0352 70.6719 57.2617 76.7461 51.7148 81.3164C46.207 85.8867 38.9023 88.1719 29.8008 88.1719C21.2852 88.1719 14.3125 85.9258 8.88281 81.4336C3.49219 76.9414 0.796875 71.0039 0.796875 63.6211H17.7305C17.7305 66.8242 18.9219 69.4414 21.3047 71.4727C23.7266 73.5039 26.6953 74.5195 30.2109 74.5195C34.2344 74.5195 37.3789 73.4648 39.6445 71.3555C41.9492 69.207 43.1016 66.375 43.1016 62.8594C43.1016 54.3438 38.4141 50.0859 29.0391 50.0859H20.0742V36.8438Z" fill="white"/>
</svg>
