<svg width="58" height="88" viewBox="0 0 58 88" fill="none" xmlns="http://www.w3.org/2000/svg">
<path d="M2.36719 44.0469L7.28906 0.6875H55.1016V14.8086H21.1758L19.0664 33.1484C23.0898 31 27.3672 29.9258 31.8984 29.9258C40.0234 29.9258 46.3906 32.4453 51 37.4844C55.6094 42.5234 57.9141 49.5742 57.9141 58.6367C57.9141 64.1445 56.7422 69.0859 54.3984 73.4609C52.0938 77.7969 48.7734 81.1758 44.4375 83.5977C40.1016 85.9805 34.9844 87.1719 29.0859 87.1719C23.9297 87.1719 19.1445 86.1367 14.7305 84.0664C10.3164 81.957 6.82031 79.0078 4.24219 75.2188C1.70312 71.4297 0.355469 67.1133 0.199219 62.2695H16.957C17.3086 65.8242 18.5391 68.5977 20.6484 70.5898C22.7969 72.543 25.5898 73.5195 29.0273 73.5195C32.8555 73.5195 35.8047 72.1523 37.875 69.418C39.9453 66.6445 40.9805 62.7383 40.9805 57.6992C40.9805 52.8555 39.7891 49.1445 37.4062 46.5664C35.0234 43.9883 31.6445 42.6992 27.2695 42.6992C23.2461 42.6992 19.9844 43.7539 17.4844 45.8633L15.8438 47.3867L2.36719 44.0469Z" fill="white"/>
<path d="M2.36719 44.0469L7.28906 0.6875H55.1016V14.8086H21.1758L19.0664 33.1484C23.0898 31 27.3672 29.9258 31.8984 29.9258C40.0234 29.9258 46.3906 32.4453 51 37.4844C55.6094 42.5234 57.9141 49.5742 57.9141 58.6367C57.9141 64.1445 56.7422 69.0859 54.3984 73.4609C52.0938 77.7969 48.7734 81.1758 44.4375 83.5977C40.1016 85.9805 34.9844 87.1719 29.0859 87.1719C23.9297 87.1719 19.1445 86.1367 14.7305 84.0664C10.3164 81.957 6.82031 79.0078 4.24219 75.2188C1.70312 71.4297 0.355469 67.1133 0.199219 62.2695H16.957C17.3086 65.8242 18.5391 68.5977 20.6484 70.5898C22.7969 72.543 25.5898 73.5195 29.0273 73.5195C32.8555 73.5195 35.8047 72.1523 37.875 69.418C39.9453 66.6445 40.9805 62.7383 40.9805 57.6992C40.9805 52.8555 39.7891 49.1445 37.4062 46.5664C35.0234 43.9883 31.6445 42.6992 27.2695 42.6992C23.2461 42.6992 19.9844 43.7539 17.4844 45.8633L15.8438 47.3867L2.36719 44.0469Z" fill="white"/>
</svg>
