<svg width="60" height="89" viewBox="0 0 60 89" fill="none" xmlns="http://www.w3.org/2000/svg">
<path d="M46.7852 0.808594V14.7539H45.1445C37.4883 14.8711 31.3164 16.8633 26.6289 20.7305C21.9805 24.5977 19.1875 29.9688 18.25 36.8438C22.7812 32.2344 28.5039 29.9297 35.418 29.9297C42.8398 29.9297 48.7383 32.5859 53.1133 37.8984C57.4883 43.2109 59.6758 50.2031 59.6758 58.875C59.6758 64.4219 58.4648 69.4414 56.043 73.9336C53.6602 78.4258 50.2617 81.9219 45.8477 84.4219C41.4727 86.9219 36.5117 88.1719 30.9648 88.1719C21.9805 88.1719 14.7148 85.0469 9.16797 78.7969C3.66016 72.5469 0.90625 64.207 0.90625 53.7773V47.6836C0.90625 38.4258 2.64453 30.2617 6.12109 23.1914C9.63672 16.082 14.6562 10.5938 21.1797 6.72656C27.7422 2.82031 35.3398 0.847656 43.9727 0.808594H46.7852ZM30.2617 43.5234C27.5273 43.5234 25.0469 44.2461 22.8203 45.6914C20.5938 47.0977 18.9531 48.9727 17.8984 51.3164V56.4727C17.8984 62.1367 19.0117 66.5703 21.2383 69.7734C23.4648 72.9375 26.5898 74.5195 30.6133 74.5195C34.2461 74.5195 37.1758 73.0938 39.4023 70.2422C41.668 67.3516 42.8008 63.6211 42.8008 59.0508C42.8008 54.4023 41.668 50.6523 39.4023 47.8008C37.1367 44.9492 34.0898 43.5234 30.2617 43.5234Z" fill="white"/>
<path d="M46.7852 0.808594V14.7539H45.1445C37.4883 14.8711 31.3164 16.8633 26.6289 20.7305C21.9805 24.5977 19.1875 29.9688 18.25 36.8438C22.7812 32.2344 28.5039 29.9297 35.418 29.9297C42.8398 29.9297 48.7383 32.5859 53.1133 37.8984C57.4883 43.2109 59.6758 50.2031 59.6758 58.875C59.6758 64.4219 58.4648 69.4414 56.043 73.9336C53.6602 78.4258 50.2617 81.9219 45.8477 84.4219C41.4727 86.9219 36.5117 88.1719 30.9648 88.1719C21.9805 88.1719 14.7148 85.0469 9.16797 78.7969C3.66016 72.5469 0.90625 64.207 0.90625 53.7773V47.6836C0.90625 38.4258 2.64453 30.2617 6.12109 23.1914C9.63672 16.082 14.6562 10.5938 21.1797 6.72656C27.7422 2.82031 35.3398 0.847656 43.9727 0.808594H46.7852ZM30.2617 43.5234C27.5273 43.5234 25.0469 44.2461 22.8203 45.6914C20.5938 47.0977 18.9531 48.9727 17.8984 51.3164V56.4727C17.8984 62.1367 19.0117 66.5703 21.2383 69.7734C23.4648 72.9375 26.5898 74.5195 30.6133 74.5195C34.2461 74.5195 37.1758 73.0938 39.4023 70.2422C41.668 67.3516 42.8008 63.6211 42.8008 59.0508C42.8008 54.4023 41.668 50.6523 39.4023 47.8008C37.1367 44.9492 34.0898 43.5234 30.2617 43.5234Z" fill="white"/>
</svg>
