<svg width="59" height="89" viewBox="0 0 59 89" fill="none" xmlns="http://www.w3.org/2000/svg">
<path d="M56.4531 24.3633C56.4531 28.5039 55.418 32.1758 53.3477 35.3789C51.2773 38.582 48.4258 41.1406 44.793 43.0547C48.9336 45.0469 52.2148 47.8008 54.6367 51.3164C57.0586 54.793 58.2695 58.8945 58.2695 63.6211C58.2695 71.1992 55.6914 77.1953 50.5352 81.6094C45.3789 85.9844 38.3672 88.1719 29.5 88.1719C20.6328 88.1719 13.6016 85.9648 8.40625 81.5508C3.21094 77.1367 0.613281 71.1602 0.613281 63.6211C0.613281 58.8945 1.82422 54.7734 4.24609 51.2578C6.66797 47.7422 9.92969 45.0078 14.0312 43.0547C10.3984 41.1406 7.54688 38.582 5.47656 35.3789C3.44531 32.1758 2.42969 28.5039 2.42969 24.3633C2.42969 17.0977 4.85156 11.3164 9.69531 7.01953C14.5391 2.68359 21.1211 0.515625 29.4414 0.515625C37.7227 0.515625 44.2852 2.66406 49.1289 6.96094C54.0117 11.2188 56.4531 17.0195 56.4531 24.3633ZM41.2773 62.3906C41.2773 58.6797 40.2031 55.7109 38.0547 53.4844C35.9062 51.2578 33.0156 50.1445 29.3828 50.1445C25.7891 50.1445 22.918 51.2578 20.7695 53.4844C18.6211 55.6719 17.5469 58.6406 17.5469 62.3906C17.5469 66.0234 18.6016 68.9531 20.7109 71.1797C22.8203 73.4062 25.75 74.5195 29.5 74.5195C33.1719 74.5195 36.043 73.4453 38.1133 71.2969C40.2227 69.1484 41.2773 66.1797 41.2773 62.3906ZM39.5195 25.1836C39.5195 21.8633 38.6406 19.207 36.8828 17.2148C35.125 15.1836 32.6445 14.168 29.4414 14.168C26.2773 14.168 23.8164 15.1445 22.0586 17.0977C20.3008 19.0508 19.4219 21.7461 19.4219 25.1836C19.4219 28.582 20.3008 31.3164 22.0586 33.3867C23.8164 35.457 26.2969 36.4922 29.5 36.4922C32.7031 36.4922 35.1641 35.457 36.8828 33.3867C38.6406 31.3164 39.5195 28.582 39.5195 25.1836Z" fill="white"/>
<path d="M56.4531 24.3633C56.4531 28.5039 55.418 32.1758 53.3477 35.3789C51.2773 38.582 48.4258 41.1406 44.793 43.0547C48.9336 45.0469 52.2148 47.8008 54.6367 51.3164C57.0586 54.793 58.2695 58.8945 58.2695 63.6211C58.2695 71.1992 55.6914 77.1953 50.5352 81.6094C45.3789 85.9844 38.3672 88.1719 29.5 88.1719C20.6328 88.1719 13.6016 85.9648 8.40625 81.5508C3.21094 77.1367 0.613281 71.1602 0.613281 63.6211C0.613281 58.8945 1.82422 54.7734 4.24609 51.2578C6.66797 47.7422 9.92969 45.0078 14.0312 43.0547C10.3984 41.1406 7.54688 38.582 5.47656 35.3789C3.44531 32.1758 2.42969 28.5039 2.42969 24.3633C2.42969 17.0977 4.85156 11.3164 9.69531 7.01953C14.5391 2.68359 21.1211 0.515625 29.4414 0.515625C37.7227 0.515625 44.2852 2.66406 49.1289 6.96094C54.0117 11.2188 56.4531 17.0195 56.4531 24.3633ZM41.2773 62.3906C41.2773 58.6797 40.2031 55.7109 38.0547 53.4844C35.9062 51.2578 33.0156 50.1445 29.3828 50.1445C25.7891 50.1445 22.918 51.2578 20.7695 53.4844C18.6211 55.6719 17.5469 58.6406 17.5469 62.3906C17.5469 66.0234 18.6016 68.9531 20.7109 71.1797C22.8203 73.4062 25.75 74.5195 29.5 74.5195C33.1719 74.5195 36.043 73.4453 38.1133 71.2969C40.2227 69.1484 41.2773 66.1797 41.2773 62.3906ZM39.5195 25.1836C39.5195 21.8633 38.6406 19.207 36.8828 17.2148C35.125 15.1836 32.6445 14.168 29.4414 14.168C26.2773 14.168 23.8164 15.1445 22.0586 17.0977C20.3008 19.0508 19.4219 21.7461 19.4219 25.1836C19.4219 28.582 20.3008 31.3164 22.0586 33.3867C23.8164 35.457 26.2969 36.4922 29.5 36.4922C32.7031 36.4922 35.1641 35.457 36.8828 33.3867C38.6406 31.3164 39.5195 28.582 39.5195 25.1836Z" fill="white"/>
</svg>
