<svg width="58" height="88" viewBox="0 0 58 88" fill="none" xmlns="http://www.w3.org/2000/svg">
<path d="M40.457 52.8984C36.043 57.2344 30.8867 59.4023 24.9883 59.4023C17.4492 59.4023 11.4141 56.8242 6.88281 51.668C2.35156 46.4727 0.0859375 39.4805 0.0859375 30.6914C0.0859375 25.1055 1.29688 19.9883 3.71875 15.3398C6.17969 10.6523 9.59766 7.01953 13.9727 4.44141C18.3477 1.82422 23.2695 0.515625 28.7383 0.515625C34.3633 0.515625 39.3633 1.92188 43.7383 4.73438C48.1133 7.54688 51.5117 11.5898 53.9336 16.8633C56.3555 22.1367 57.5859 28.1719 57.625 34.9688V41.2383C57.625 55.457 54.0898 66.6289 47.0195 74.7539C39.9492 82.8789 29.9297 87.2148 16.9609 87.7617L12.8008 87.8203V73.6992L16.5508 73.6406C31.2773 72.9766 39.2461 66.0625 40.457 52.8984ZM29.1484 46.4531C31.8828 46.4531 34.2266 45.75 36.1797 44.3438C38.1719 42.9375 39.6758 41.2383 40.6914 39.2461V32.2734C40.6914 26.5312 39.5977 22.0781 37.4102 18.9141C35.2227 15.75 32.293 14.168 28.6211 14.168C25.2227 14.168 22.4297 15.7305 20.2422 18.8555C18.0547 21.9414 16.9609 25.8281 16.9609 30.5156C16.9609 35.1641 18.0156 38.9922 20.125 42C22.2734 44.9688 25.2812 46.4531 29.1484 46.4531Z" fill="white"/>
<path d="M40.457 52.8984C36.043 57.2344 30.8867 59.4023 24.9883 59.4023C17.4492 59.4023 11.4141 56.8242 6.88281 51.668C2.35156 46.4727 0.0859375 39.4805 0.0859375 30.6914C0.0859375 25.1055 1.29688 19.9883 3.71875 15.3398C6.17969 10.6523 9.59766 7.01953 13.9727 4.44141C18.3477 1.82422 23.2695 0.515625 28.7383 0.515625C34.3633 0.515625 39.3633 1.92188 43.7383 4.73438C48.1133 7.54688 51.5117 11.5898 53.9336 16.8633C56.3555 22.1367 57.5859 28.1719 57.625 34.9688V41.2383C57.625 55.457 54.0898 66.6289 47.0195 74.7539C39.9492 82.8789 29.9297 87.2148 16.9609 87.7617L12.8008 87.8203V73.6992L16.5508 73.6406C31.2773 72.9766 39.2461 66.0625 40.457 52.8984ZM29.1484 46.4531C31.8828 46.4531 34.2266 45.75 36.1797 44.3438C38.1719 42.9375 39.6758 41.2383 40.6914 39.2461V32.2734C40.6914 26.5312 39.5977 22.0781 37.4102 18.9141C35.2227 15.75 32.293 14.168 28.6211 14.168C25.2227 14.168 22.4297 15.7305 20.2422 18.8555C18.0547 21.9414 16.9609 25.8281 16.9609 30.5156C16.9609 35.1641 18.0156 38.9922 20.125 42C22.2734 44.9688 25.2812 46.4531 29.1484 46.4531Z" fill="white"/>
</svg>
