<svg width="18" height="20" viewBox="0 0 18 20" fill="none" xmlns="http://www.w3.org/2000/svg">
<g clip-path="url(#clip0)">
<path d="M0.899902 4.54541H2.6999H17.0999" stroke="black" stroke-width="2" stroke-linecap="round" stroke-linejoin="round"/>
<path d="M5.39995 4.54554V2.72736C5.39995 2.24515 5.58959 1.78269 5.92716 1.44171C6.26472 1.10074 6.72256 0.90918 7.19995 0.90918H10.8C11.2773 0.90918 11.7352 1.10074 12.0727 1.44171C12.4103 1.78269 12.6 2.24515 12.6 2.72736V4.54554M15.3 4.54554V17.2728C15.3 17.755 15.1103 18.2175 14.7727 18.5585C14.4352 18.8994 13.9773 19.091 13.5 19.091H4.49995C4.02256 19.091 3.56472 18.8994 3.22716 18.5585C2.88959 18.2175 2.69995 17.755 2.69995 17.2728V4.54554H15.3Z" stroke="black" stroke-width="2" stroke-linecap="round" stroke-linejoin="round"/>
<path d="M7.19995 9.09082V14.5454" stroke="black" stroke-width="2" stroke-linecap="round" stroke-linejoin="round"/>
<path d="M10.8 9.09082V14.5454" stroke="black" stroke-width="2" stroke-linecap="round" stroke-linejoin="round"/>
</g>
<defs>
<clipPath id="clip0">
<rect width="18" height="20" fill="white"/>
</clipPath>
</defs>
</svg>
