<svg width="20" height="21" viewBox="0 0 20 21" fill="none" xmlns="http://www.w3.org/2000/svg">
<g clip-path="url(#clip0)">
<path d="M10 1.8335C9.33696 1.8335 8.70107 2.09689 8.23223 2.56573C7.76339 3.03457 7.5 3.67045 7.5 4.3335V11.0002C7.5 11.6632 7.76339 12.2991 8.23223 12.7679C8.70107 13.2368 9.33696 13.5002 10 13.5002C10.663 13.5002 11.2989 13.2368 11.7678 12.7679C12.2366 12.2991 12.5 11.6632 12.5 11.0002V4.3335C12.5 3.67045 12.2366 3.03457 11.7678 2.56573C11.2989 2.09689 10.663 1.8335 10 1.8335Z" stroke="white" stroke-width="2" stroke-linecap="round" stroke-linejoin="round"/>
<path d="M15.8337 9.3335V11.0002C15.8337 12.5473 15.2191 14.031 14.1251 15.125C13.0312 16.2189 11.5475 16.8335 10.0003 16.8335C8.45322 16.8335 6.96949 16.2189 5.87553 15.125C4.78157 14.031 4.16699 12.5473 4.16699 11.0002V9.3335" stroke="white" stroke-width="2" stroke-linecap="round" stroke-linejoin="round"/>
<path d="M10 16.8335V20.1668" stroke="white" stroke-width="2" stroke-linecap="round" stroke-linejoin="round"/>
<path d="M6.66699 20.1665H13.3337" stroke="white" stroke-width="2" stroke-linecap="round" stroke-linejoin="round"/>
</g>
<defs>
<clipPath id="clip0">
<rect width="20" height="21" fill="white"/>
</clipPath>
</defs>
</svg>
