<svg width="20" height="20" viewBox="0 0 20 20" fill="none" xmlns="http://www.w3.org/2000/svg">
<path d="M2 2L18 18" stroke="black" stroke-width="2" stroke-linecap="round" stroke-linejoin="round"/>
<path d="M12 7.95914V4.14496C12.0005 3.61356 11.8167 3.10093 11.4843 2.70657C11.1519 2.31221 10.6945 2.06426 10.201 2.01085C9.70757 1.95745 9.21318 2.1024 8.81385 2.41757C8.41452 2.73273 8.13874 3.19563 8.04004 3.7164" stroke="black" stroke-width="2" stroke-linecap="round" stroke-linejoin="round"/>
<path d="M5.00013 9V10.3258C4.99284 11.2505 5.2834 12.1561 5.83453 12.9264C6.38566 13.6968 7.17222 14.2968 8.0933 14.6494C9.01439 15.002 10.028 15.0912 11.0041 14.9055C11.9801 14.7198 12.8742 14.2676 13.5714 13.6071C14.9011 12.3476 14.9997 10.5992 15 10.3258V9" stroke="black" stroke-width="2" stroke-linecap="round" stroke-linejoin="round"/>
<path d="M10 15V18" stroke="black" stroke-width="2" stroke-linecap="round" stroke-linejoin="round"/>
<path d="M7 18H13" stroke="black" stroke-width="2" stroke-linecap="round" stroke-linejoin="round"/>
</svg>
