<svg width="18" height="18" viewBox="0 0 18 18" fill="none" xmlns="http://www.w3.org/2000/svg">
<path d="M12.75 2.25023C12.947 2.05324 13.1808 1.89699 13.4382 1.79038C13.6956 1.68378 13.9714 1.62891 14.25 1.62891C14.5286 1.62891 14.8044 1.68378 15.0618 1.79038C15.3192 1.89699 15.553 2.05324 15.75 2.25023C15.947 2.44721 16.1032 2.68106 16.2098 2.93843C16.3164 3.1958 16.3713 3.47165 16.3713 3.75023C16.3713 4.0288 16.3164 4.30465 16.2098 4.56202C16.1032 4.81939 15.947 5.05324 15.75 5.25023L5.625 15.3752L1.5 16.5002L2.625 12.3752L12.75 2.25023Z" stroke="black" stroke-width="2" stroke-linecap="round" stroke-linejoin="round"/>
</svg>
