<svg width="15" height="97" viewBox="0 0 15 97" fill="none" xmlns="http://www.w3.org/2000/svg">
<path fill-rule="evenodd" clip-rule="evenodd" d="M7.27284 0C7.27285 0 7.27286 7.47288e-06 7.27286 1.66912e-05C7.27286 2.589e-05 7.27286 3.33551e-05 7.27287 3.33826e-05C11.4797 0.0126206 14.8004 3.58309 14.5051 7.78264L8.29861 96.0438C8.26074 96.5824 7.81277 97 7.27286 97H7.25056C6.71064 97 6.26267 96.5824 6.2248 96.0438L0.018278 7.78264C-0.277034 3.58309 3.04375 0.0126206 7.25054 3.33826e-05C7.25055 3.33551e-05 7.25056 2.589e-05 7.25056 1.66912e-05C7.25056 7.47288e-06 7.25057 0 7.25057 0C7.25429 8.31471e-09 7.258 2.78954e-06 7.26171 8.33204e-06C7.26542 2.78632e-06 7.26913 8.30314e-09 7.27284 0Z" fill="#D1D9DF"/>
</svg>
