<svg width="126" height="29" viewBox="0 0 126 29" fill="none" xmlns="http://www.w3.org/2000/svg">
<path d="M110.262 25.6989V22.9278H112.088C113.205 22.9278 113.678 22.5841 114.107 21.4241L114.301 20.9085L109.983 9.80249H113.527L115.869 16.6981L118.468 9.80249H121.905L116.449 22.8848C115.547 25.076 114.344 25.9997 112.453 25.9997C111.658 25.9997 110.907 25.8923 110.262 25.6989Z" fill="black"/>
<path d="M109.099 20.5419H105.791V12.5508H103.75V9.8011H105.791V6.47144H109.099V9.8011H111.14V12.5508H109.099V20.5419Z" fill="black"/>
<path d="M101.29 8.1277C100.237 8.1277 99.3994 7.28992 99.3994 6.23731C99.3994 5.18471 100.237 4.36841 101.29 4.36841C102.321 4.36841 103.159 5.18471 103.159 6.23731C103.159 7.28992 102.321 8.1277 101.29 8.1277ZM99.6572 20.5441V9.80328H102.965V20.5441H99.6572Z" fill="black"/>
<path d="M91.4425 20.545H88.1343V9.80416H91.2491L91.4639 10.9212C92.1299 9.99749 93.3543 9.46045 94.7506 9.46045C97.307 9.46045 98.7892 11.0931 98.7892 13.9072V20.545H95.481V14.702C95.481 13.3486 94.7292 12.4679 93.5906 12.4679C92.2802 12.4679 91.4425 13.3272 91.4425 14.659V20.545Z" fill="black"/>
<path d="M81.8343 20.8243C78.5905 20.8243 76.2705 18.4613 76.2705 15.1531C76.2705 11.802 78.5261 9.46045 81.7698 9.46045C85.1424 9.46045 87.2477 11.6731 87.2477 15.1746V16.0124L79.4498 16.0553C79.6431 17.4731 80.438 18.1391 81.8987 18.1391C83.1446 18.1391 84.0254 17.6879 84.2617 16.9146H87.2906C86.9039 19.2991 84.7773 20.8243 81.8343 20.8243ZM81.7913 12.1457C80.4809 12.1457 79.7505 12.7257 79.4928 14.0146H83.961C83.961 12.876 83.1232 12.1457 81.7913 12.1457Z" fill="black"/>
<path d="M70.3387 20.8243C67.0949 20.8243 64.7749 18.4613 64.7749 15.1531C64.7749 11.802 67.0305 9.46045 70.2742 9.46045C73.6468 9.46045 75.752 11.6731 75.752 15.1746V16.0124L67.9542 16.0553C68.1475 17.4731 68.9423 18.1391 70.4031 18.1391C71.649 18.1391 72.5298 17.6879 72.7661 16.9146H75.795C75.4083 19.2991 73.2817 20.8243 70.3387 20.8243ZM70.2957 12.1457C68.9853 12.1457 68.2549 12.7257 67.9972 14.0146H72.4653C72.4653 12.876 71.6276 12.1457 70.2957 12.1457Z" fill="black"/>
<path d="M64.8555 9.80247V12.9173H63.8029C61.9125 12.9173 60.774 13.7551 60.774 15.8818V20.5433H57.4658V9.82395H60.5807L60.7525 11.4136C61.2036 10.361 62.1488 9.6521 63.5881 9.6521C63.9748 9.6521 64.4044 9.69506 64.8555 9.80247Z" fill="black"/>
<path d="M45.7285 15.1316C45.7285 11.8234 48.0056 9.46045 51.2278 9.46045C54.4071 9.46045 56.5123 11.2005 56.7271 14.0146H53.3975C53.1612 12.9405 52.4952 12.4249 51.3567 12.4249C49.9604 12.4249 49.0582 13.4775 49.0582 15.1316C49.0582 16.8501 49.896 17.8598 51.3138 17.8598C52.4738 17.8598 53.1827 17.3227 53.3975 16.2701H56.7271C56.5123 18.9768 54.3212 20.8243 51.3138 20.8243C47.9196 20.8243 45.7285 18.5687 45.7285 15.1316Z" fill="black"/>
<path d="M33.3906 9.26501C33.3906 6.38646 35.818 4.3457 39.2336 4.3457C42.6492 4.3457 44.7974 6.23609 44.7974 9.24353H41.3388C41.3388 8.12648 40.501 7.43907 39.1907 7.43907C37.7729 7.43907 36.8706 8.08352 36.8706 9.13612C36.8706 10.1028 37.3647 10.5754 38.4818 10.8117L40.8662 11.3058C43.7018 11.8858 45.0552 13.2391 45.0552 15.7525C45.0552 18.8244 42.6492 20.8222 38.9973 20.8222C35.4528 20.8222 33.1543 18.9103 33.1543 15.9243H36.6128C36.6128 17.0843 37.4721 17.7288 39.0188 17.7288C40.587 17.7288 41.5751 17.1058 41.5751 16.0962C41.5751 15.2154 41.167 14.7643 40.1144 14.5495L37.6869 14.0554C34.8514 13.4754 33.3906 11.8643 33.3906 9.26501Z" fill="black"/>
<circle cx="14.583" cy="12.4827" r="7.56741" fill="black"/>
<path d="M24.1679 12.584C24.1679 17.877 19.877 22.1679 14.584 22.1679C9.29088 22.1679 5 17.877 5 12.584C5 7.29088 9.29088 3 14.584 3C19.877 3 24.1679 7.29088 24.1679 12.584Z" fill="#9D9D9D"/>
<path d="M24.1679 12.584C24.1679 17.877 19.877 22.1679 14.584 22.1679C9.29088 22.1679 5 17.877 5 12.584C5 7.29088 9.29088 3 14.584 3C19.877 3 24.1679 7.29088 24.1679 12.584Z" fill="url(#paint0_radial_6723_3733)"/>
<defs>
<radialGradient id="paint0_radial_6723_3733" cx="0" cy="0" r="1" gradientUnits="userSpaceOnUse" gradientTransform="translate(11.7937 3) rotate(81.7628) scale(22.8109 22.6709)">
<stop offset="0.231286" stop-color="#2BAEF8"/>
<stop offset="0.463542" stop-color="#3582F6"/>
<stop offset="0.744792" stop-color="#486DEF"/>
<stop offset="1" stop-color="#7B9AEA"/>
</radialGradient>
</defs>
</svg>
