<svg xmlns="http://www.w3.org/2000/svg" width="16" height="15" fill="none" viewBox="0 0 16 15">
  <g clip-path="url(#a)">
    <path fill="#0066DA" d="m1.21 12.605.705 1.219c.147.256.358.458.605.604l2.52-4.362H0c0 .284.073.569.22.825l.99 1.714Z"/>
    <path fill="#00AC47" d="M8 4.932 5.48.57a1.664 1.664 0 0 0-.605.605L.22 9.24a1.66 1.66 0 0 0-.22.825h5.04L8 4.932Z"/>
    <path fill="#EA4335" d="M13.481 14.428c.248-.146.459-.348.605-.604l.293-.504 1.402-2.429c.147-.256.22-.54.22-.825h-5.04l1.072 2.108 1.448 2.254Z"/>
    <path fill="#00832D" d="M8 4.933 10.52.571a1.611 1.611 0 0 0-.824-.22h-3.39c-.294 0-.578.083-.826.22L8 4.933Z"/>
    <path fill="#2684FC" d="M10.96 10.066H5.04l-2.52 4.362c.247.147.531.22.824.22h9.31c.294 0 .578-.082.825-.22l-2.52-4.362Z"/>
    <path fill="#FFBA00" d="m13.453 5.207-2.328-4.032A1.664 1.664 0 0 0 10.52.57L8 4.932l2.96 5.132h5.03a1.66 1.66 0 0 0-.22-.825l-2.317-4.032Z"/>
  </g>
  <defs>
    <clipPath id="a">
      <path fill="#fff" d="M0 .352h16v14.296H0z"/>
    </clipPath>
  </defs>
</svg>
