<svg xmlns="http://www.w3.org/2000/svg" width="12" height="19" fill="currentColor" viewBox="0 0 12 19">
  <path fill-rule="evenodd" d="M6.56 2.058a4.276 4.276 0 0 0-2.817.5 4.032 4.032 0 0 0-1.803 2.12 1 1 0 0 1-1.88-.68A6.032 6.032 0 0 1 2.752.82 6.276 6.276 0 0 1 6.889.086a6.183 6.183 0 0 1 3.658 2.038A5.91 5.91 0 0 1 12 6.004c0 2.149-1.598 3.634-2.907 4.506-1.337.891-2.239 2.164-2.239 3.49a1 1 0 1 1-2 0c0-2.251 1.49-4.062 3.13-5.154C9.172 8.054 10 7.09 10 6.004v-.002a3.91 3.91 0 0 0-.964-2.568A4.183 4.183 0 0 0 6.56 2.058ZM12 6.004v.001l-1-.001h1ZM5 18a1 1 0 0 1 1-1h.01a1 1 0 1 1 0 2H6a1 1 0 0 1-1-1Z" clip-rule="evenodd"/>
</svg>
