<svg xmlns="http://www.w3.org/2000/svg" width="16" height="16" fill="currentColor" viewBox="0 0 16 16">
  <g clip-path="url(#a)">
    <path fill-rule="evenodd" d="M7.999 2.332a5.667 5.667 0 1 0 0 11.333 5.667 5.667 0 0 0 0-11.333ZM.332 7.999a7.667 7.667 0 1 1 15.333 0 7.667 7.667 0 0 1-15.333 0Zm7.782-2.322a1 1 0 0 0-1.112.654 1 1 0 0 1-1.887-.664 3 3 0 0 1 5.83 1c0 1.196-.885 1.957-1.445 2.33a5.697 5.697 0 0 1-1.197.603l-.027.009-.008.003-.004.001h-.001s-.001.001-.318-.948l.317.95a1 1 0 0 1-.636-1.897m0 0h.001l.002-.001m-.003 0 .007-.002.042-.015c.04-.016.102-.04.177-.073a3.7 3.7 0 0 0 .539-.294c.44-.293.554-.532.554-.668v-.001a1 1 0 0 0-.83-.987m-1.116 5.655a1 1 0 0 1 1-1h.006a1 1 0 1 1 0 2H8a1 1 0 0 1-1-1Z" clip-rule="evenodd"/>
  </g>
  <defs>
    <clipPath id="a">
      <path d="M0 0h16v16H0z"/>
    </clipPath>
  </defs>
</svg>
