<svg width="22" height="22" viewBox="0 0 22 22" fill="none" xmlns="http://www.w3.org/2000/svg">
<path d="M16.5 7.3335C18.0188 7.3335 19.25 6.10228 19.25 4.5835C19.25 3.06471 18.0188 1.8335 16.5 1.8335C14.9812 1.8335 13.75 3.06471 13.75 4.5835C13.75 6.10228 14.9812 7.3335 16.5 7.3335Z" stroke="#69708A" stroke-width="2" stroke-linecap="round" stroke-linejoin="round"/>
<path d="M5.5 13.75C7.01878 13.75 8.25 12.5188 8.25 11C8.25 9.48122 7.01878 8.25 5.5 8.25C3.98122 8.25 2.75 9.48122 2.75 11C2.75 12.5188 3.98122 13.75 5.5 13.75Z" stroke="#69708A" stroke-width="2" stroke-linecap="round" stroke-linejoin="round"/>
<path d="M16.5 20.1665C18.0188 20.1665 19.25 18.9353 19.25 17.4165C19.25 15.8977 18.0188 14.6665 16.5 14.6665C14.9812 14.6665 13.75 15.8977 13.75 17.4165C13.75 18.9353 14.9812 20.1665 16.5 20.1665Z" stroke="#69708A" stroke-width="2" stroke-linecap="round" stroke-linejoin="round"/>
<path d="M7.875 12.3843L14.1358 16.0326" stroke="#69708A" stroke-width="2" stroke-linecap="round" stroke-linejoin="round"/>
<path d="M14.1267 5.96729L7.875 9.61562" stroke="#69708A" stroke-width="2" stroke-linecap="round" stroke-linejoin="round"/>
</svg>
