<svg width="19" height="18" viewBox="0 0 19 18" fill="none" xmlns="http://www.w3.org/2000/svg">
<path d="M8.60685 0.773692C8.97629 0.040029 10.0237 0.040027 10.3932 0.77369L12.391 4.74125C12.5365 5.03015 12.8127 5.23084 13.1325 5.27992L17.5232 5.95398C18.3351 6.07863 18.6588 7.07479 18.0752 7.65286L14.9192 10.779C14.6894 11.0066 14.5839 11.3314 14.636 11.6506L15.3518 16.0347C15.4841 16.8454 14.6367 17.4611 13.9066 17.0847L9.95822 15.0492C9.67072 14.901 9.32928 14.901 9.04178 15.0492L5.09338 17.0847C4.36326 17.4611 3.51587 16.8454 3.64823 16.0348L4.36397 11.6506C4.41609 11.3314 4.31058 11.0066 4.08078 10.779L0.924787 7.65286C0.341196 7.07479 0.664867 6.07863 1.47679 5.95398L5.86754 5.27992C6.18725 5.23084 6.46348 5.03015 6.60896 4.74125L8.60685 0.773692Z" fill="#2D89F4"/>
</svg>
