<svg xmlns="http://www.w3.org/2000/svg" width="16" height="16" fill="none" viewBox="0 0 16 16">
  <path fill="red" d="M15.665 4.6a2.004 2.004 0 0 0-1.414-1.414C13.004 2.852 8 2.852 8 2.852s-5.004 0-6.25.334A2.004 2.004 0 0 0 .334 4.601C0 5.848 0 8.45 0 8.45s0 2.605.335 3.852a2 2 0 0 0 1.414 1.414c1.247.335 6.251.335 6.251.335s5.004 0 6.25-.335a2.003 2.003 0 0 0 1.415-1.414C16 11.056 16 8.452 16 8.452s-.001-2.604-.335-3.851Z"/>
  <path fill="#fff" d="m6.398 10.854 4.157-2.4-4.157-2.4v4.8Z"/>
</svg>
