<svg width="26" height="26" viewBox="0 0 26 26" fill="none" xmlns="http://www.w3.org/2000/svg">
<mask id="path-1-inside-1_2365_269" fill="white">
<path fill-rule="evenodd" clip-rule="evenodd" d="M10.1647 5.2C10.1647 5.08954 10.2543 5 10.3647 5H13.4124H16.4601C16.5705 5 16.6601 5.08954 16.6601 5.2V11.4348C16.6601 11.4743 16.6717 11.5129 16.6936 11.5457L18.74 14.6152C18.9615 14.9475 18.7233 15.3925 18.3239 15.3925H13.4124H8.50084C8.10149 15.3925 7.8633 14.9475 8.08482 14.6152L10.1311 11.5457C10.153 11.5129 10.1647 11.4743 10.1647 11.4348V5.2Z"/>
</mask>
<path fill-rule="evenodd" clip-rule="evenodd" d="M10.1647 5.2C10.1647 5.08954 10.2543 5 10.3647 5H13.4124H16.4601C16.5705 5 16.6601 5.08954 16.6601 5.2V11.4348C16.6601 11.4743 16.6717 11.5129 16.6936 11.5457L18.74 14.6152C18.9615 14.9475 18.7233 15.3925 18.3239 15.3925H13.4124H8.50084C8.10149 15.3925 7.8633 14.9475 8.08482 14.6152L10.1311 11.5457C10.153 11.5129 10.1647 11.4743 10.1647 11.4348V5.2Z" fill="#6E7684"/>
<path d="M18.74 14.6152L17.0759 15.7246L17.0759 15.7246L18.74 14.6152ZM8.08482 14.6152L9.74892 15.7246L9.74892 15.7246L8.08482 14.6152ZM10.1311 11.5457L11.7952 12.6551L10.1311 11.5457ZM16.6936 11.5457L15.0295 12.6551L16.6936 11.5457ZM13.4124 3H10.3647V7H13.4124V3ZM13.4124 7H16.4601V3H13.4124V7ZM14.6601 5.2V11.4348H18.6601V5.2H14.6601ZM15.0295 12.6551L17.0759 15.7246L20.4041 13.5058L18.3577 10.4363L15.0295 12.6551ZM17.0759 15.7246C16.4113 14.7278 17.1259 13.3925 18.3239 13.3925V17.3925C20.3207 17.3925 21.5116 15.1672 20.4041 13.5058L17.0759 15.7246ZM18.3239 13.3925H13.4124V17.3925H18.3239V13.3925ZM8.50084 17.3925H13.4124V13.3925H8.50084V17.3925ZM6.42072 13.5058C5.31312 15.1672 6.5041 17.3925 8.50084 17.3925V13.3925C9.69889 13.3925 10.4135 14.7278 9.74892 15.7246L6.42072 13.5058ZM8.46703 10.4363L6.42072 13.5058L9.74892 15.7246L11.7952 12.6551L8.46703 10.4363ZM8.16472 5.2V11.4348H12.1647V5.2H8.16472ZM11.7952 12.6551C12.0362 12.2937 12.1647 11.8691 12.1647 11.4348H8.16472C8.16472 11.0794 8.26991 10.732 8.46703 10.4363L11.7952 12.6551ZM14.6601 11.4348C14.6601 11.8691 14.7886 12.2937 15.0295 12.6551L18.3577 10.4363C18.5549 10.732 18.6601 11.0794 18.6601 11.4348H14.6601ZM16.4601 7C15.4659 7 14.6601 6.19411 14.6601 5.2H18.6601C18.6601 3.98497 17.6751 3 16.4601 3V7ZM10.3647 3C9.14969 3 8.16472 3.98497 8.16472 5.2H12.1647C12.1647 6.19411 11.3588 7 10.3647 7V3Z" fill="#6E7684" mask="url(#path-1-inside-1_2365_269)"/>
<path d="M17.9587 5.65039H8.86523" stroke="#6E7684" stroke-width="2" stroke-linecap="round"/>
<path d="M13.4121 15.3926V21.2384" stroke="#6E7684" stroke-width="2" stroke-linecap="round" stroke-linejoin="round"/>
</svg>
