<svg width="104" height="38" viewBox="0 0 104 38" fill="none" xmlns="http://www.w3.org/2000/svg">
<path d="M0.060792 25.2476L2.98359 22.3361C3.09174 22.2273 3.2756 22.2735 3.31886 22.4232C3.65143 23.5687 5.06551 26.9999 9.55651 26.9999C12.4333 26.9999 13.9367 26.1591 13.9367 24.4748C13.9367 23.1959 13.1336 22.0504 10.0243 21.0409L7.4827 20.2002C2.6348 18.6166 0.596143 16.6656 0.596143 13.0304C0.596143 9.15845 4.10566 6.53271 8.92382 6.53271C13.742 6.53271 16.8351 8.55984 17.8463 11.2944C17.8734 11.3679 17.8544 11.4495 17.8031 11.5039L15.1263 14.38C15.029 14.4861 14.8532 14.4589 14.7938 14.3256C14.3936 13.4331 12.9579 10.9761 9.15635 10.9761C6.9149 10.9761 5.57653 11.8168 5.57653 13.2317C5.57653 14.478 6.51204 15.1827 8.01805 15.6208L11.0274 16.5296C16.5783 18.1785 18.9197 20.5348 18.9197 24.3034C18.9197 28.4093 15.175 31.3725 9.65655 31.3725C5.06821 31.3725 1.65062 28.8801 0.0202351 25.4788C-0.017618 25.3999 -0.00139523 25.3074 0.060792 25.2448V25.2476Z" fill="#0A3B6D"/>
<path d="M20.9287 23.7673V6.70407C20.9287 6.59251 21.0179 6.5 21.1315 6.5H25.4089C25.5197 6.5 25.6117 6.58979 25.6117 6.70407V23.7673C25.6117 25.5849 26.4823 26.8638 28.8887 26.8638H29.0212C29.132 26.8638 29.2239 26.9535 29.2239 27.0678V30.869C29.2239 30.9806 29.1347 31.0731 29.0212 31.0731H28.3885C23.4378 31.0731 20.9314 27.4705 20.9314 23.77L20.9287 23.7673Z" fill="#0A3B6D"/>
<path d="M30.7273 9.46286C30.7273 7.78946 32.163 6.40449 33.8826 6.50516C35.3562 6.59224 36.5567 7.79763 36.6432 9.28056C36.7459 11.0111 35.3697 12.4587 33.7042 12.4587C32.0386 12.4587 30.7273 11.1118 30.7273 9.46286ZM31.5655 13.9035H35.8429C35.9537 13.9035 36.0457 13.9933 36.0457 14.1076V30.564C36.0457 30.6756 35.9564 30.7681 35.8429 30.7681H31.5655C31.4546 30.7681 31.3627 30.6783 31.3627 30.564V14.1076C31.3627 13.996 31.4519 13.9035 31.5655 13.9035Z" fill="#0A3B6D"/>
<path d="M55.1749 20.0971V30.6327C55.1749 30.6899 55.129 30.7334 55.0749 30.7334H50.6272C50.5704 30.7334 50.5271 30.6871 50.5271 30.6327V21.58C50.5271 19.055 49.1239 17.2727 47.1474 17.2727C44.9059 17.2727 43.335 19.0577 43.335 21.58V30.6327C43.335 30.6899 43.2891 30.7334 43.235 30.7334H38.7548C38.698 30.7334 38.6548 30.6871 38.6548 30.6327V13.5015C38.6548 13.4443 38.7007 13.4008 38.7548 13.4008H42.2427C42.2941 13.4008 42.3373 13.4389 42.3428 13.4933L42.5699 15.6919C42.5807 15.7871 42.7051 15.817 42.7564 15.7354C44.0894 13.5967 45.9929 13.0688 48.0532 13.0688C52.0007 13.0688 55.1777 15.9966 55.1777 20.1026L55.1749 20.0971Z" fill="#0A3B6D"/>
<path d="M72.1303 34.572C72.1303 33.5299 71.8951 32.8224 70.892 32.8224C69.6536 32.8224 67.3473 34.0332 64.8706 34.8414C62.3615 35.6822 59.7199 36.1202 57.8462 34.4713C55.8724 32.7544 55.3371 29.5899 58.0138 27.0676L60.2228 24.9806C59.2522 23.8024 58.7195 22.2895 58.7195 20.5372C58.7195 16.1619 61.9641 13.0654 66.5794 13.0654C68.7884 13.0654 70.6946 13.7729 72.0654 15.0164C73.0036 13.9089 74.9747 13.1171 77.0107 13.0682C77.1242 13.0654 77.2162 13.1579 77.2162 13.2722V17.0761C77.2162 17.1823 77.1323 17.2721 77.0269 17.2775C75.5182 17.3591 74.4069 18.4366 74.4069 20.5046C74.4069 24.7466 71.1624 27.7396 66.5794 27.7396C65.3411 27.7396 64.2055 27.5383 63.2024 27.1329L62.8996 27.4022C61.2935 28.8498 60.5256 29.7259 61.4963 30.6674C63.2348 32.3163 67.4825 28.243 72.836 28.243C75.8805 28.243 76.8484 30.7 76.8484 33.9979V37.2957C76.8484 37.4072 76.7592 37.4998 76.6457 37.4998H72.3656C72.2547 37.4998 72.1655 37.41 72.1628 37.2984L72.1303 34.572ZM69.7212 20.5018C69.7212 18.4774 68.2179 17.0761 66.1631 17.2938C64.8679 17.4299 63.635 18.6353 63.443 19.9304C63.1348 22.0147 64.511 23.533 66.5767 23.533C68.418 23.533 69.7212 22.2868 69.7212 20.5046V20.5018Z" fill="#0A3B6D"/>
<path d="M94.7367 13.6045V30.5316C94.7367 30.6432 94.6475 30.7357 94.534 30.7357H91.238C91.1353 30.7357 91.0488 30.6568 91.038 30.5534L90.8216 28.4474C90.8108 28.3521 90.6865 28.3222 90.6351 28.4038C89.3021 30.5425 87.3986 31.0731 85.3384 31.0731C81.3908 31.0731 78.2139 28.1453 78.2139 24.0394V13.6045C78.2139 13.4929 78.3031 13.4004 78.4167 13.4004H82.6616C82.7725 13.4004 82.8644 13.4902 82.8644 13.6045V22.5565C82.8644 25.0815 84.2677 26.8638 86.2441 26.8638C88.4856 26.8638 90.0565 25.0815 90.0565 22.5565V13.6045C90.0565 13.4929 90.1457 13.4004 90.2593 13.4004H94.5367C94.6475 13.4004 94.7394 13.4902 94.7394 13.6045H94.7367Z" fill="#0A3B6D"/>
<path d="M98.0786 9.46286C98.0786 7.78946 99.5143 6.40449 101.234 6.50516C102.708 6.59224 103.908 7.79763 103.995 9.28056C104.097 11.0111 102.721 12.4587 101.055 12.4587C99.39 12.4587 98.0786 11.1118 98.0786 9.46286ZM98.9168 13.9035H103.194C103.305 13.9035 103.397 13.9933 103.397 14.1076V30.564C103.397 30.6756 103.308 30.7681 103.194 30.7681H98.9168C98.8059 30.7681 98.714 30.6783 98.714 30.564V14.1076C98.714 13.996 98.8032 13.9035 98.9168 13.9035Z" fill="#0A3B6D"/>
</svg>
