<svg width="150" height="35" viewBox="0 0 150 35" fill="none" xmlns="http://www.w3.org/2000/svg">
<path d="M43.936 14.2133C43.936 10.7293 46.874 8.25928 51.008 8.25928C55.142 8.25928 57.742 10.5473 57.742 14.1873H53.556C53.556 12.8353 52.542 12.0033 50.956 12.0033C49.24 12.0033 48.148 12.7833 48.148 14.0573C48.148 15.2273 48.746 15.7993 50.098 16.0853L52.984 16.6833C56.416 17.3853 58.054 19.0233 58.054 22.0653C58.054 25.7833 55.142 28.2013 50.722 28.2013C46.432 28.2013 43.65 25.8873 43.65 22.2733H47.836C47.836 23.6773 48.876 24.4573 50.748 24.4573C52.646 24.4573 53.842 23.7033 53.842 22.4813C53.842 21.4153 53.348 20.8693 52.074 20.6093L49.136 20.0113C45.704 19.3093 43.936 17.3593 43.936 14.2133ZM58.2197 21.3113C58.2197 17.3073 60.9757 14.4473 64.8757 14.4473C68.7238 14.4473 71.2718 16.5533 71.5318 19.9593H67.5017C67.2157 18.6593 66.4098 18.0353 65.0318 18.0353C63.3418 18.0353 62.2497 19.3093 62.2497 21.3113C62.2497 23.3913 63.2637 24.6133 64.9797 24.6133C66.3838 24.6133 67.2418 23.9633 67.5017 22.6893H71.5318C71.2718 25.9653 68.6198 28.2013 64.9797 28.2013C60.8717 28.2013 58.2197 25.4713 58.2197 21.3113ZM81.2385 14.8633V18.6333H79.9645C77.6765 18.6333 76.2985 19.6473 76.2985 22.2213V27.8633H72.2945V14.8893H76.0645L76.2725 16.8133C76.8185 15.5393 77.9625 14.6813 79.7045 14.6813C80.1725 14.6813 80.6925 14.7333 81.2385 14.8633ZM87.4844 28.2013C83.5584 28.2013 80.7504 25.3413 80.7504 21.3373C80.7504 17.2813 83.4804 14.4473 87.4064 14.4473C91.4884 14.4473 94.0364 17.1253 94.0364 21.3633V22.3773L84.5984 22.4293C84.8324 24.1453 85.7944 24.9513 87.5624 24.9513C89.0704 24.9513 90.1364 24.4053 90.4224 23.4693H94.0884C93.6204 26.3553 91.0464 28.2013 87.4844 28.2013ZM87.4324 17.6973C85.8464 17.6973 84.9624 18.3993 84.6504 19.9593H90.0584C90.0584 18.5813 89.0444 17.6973 87.4324 17.6973ZM101.009 28.2013C97.0835 28.2013 94.2755 25.3413 94.2755 21.3373C94.2755 17.2813 97.0055 14.4473 100.931 14.4473C105.013 14.4473 107.561 17.1253 107.561 21.3633V22.3773L98.1235 22.4293C98.3575 24.1453 99.3195 24.9513 101.087 24.9513C102.595 24.9513 103.661 24.4053 103.947 23.4693H107.613C107.145 26.3553 104.571 28.2013 101.009 28.2013ZM100.957 17.6973C99.3715 17.6973 98.4875 18.3993 98.1755 19.9593H103.583C103.583 18.5813 102.569 17.6973 100.957 17.6973ZM112.507 27.8633H108.503V14.8633H112.273L112.533 16.2153C113.339 15.0973 114.821 14.4473 116.511 14.4473C119.605 14.4473 121.399 16.4233 121.399 19.8293V27.8633H117.395V20.7913C117.395 19.1533 116.485 18.0873 115.107 18.0873C113.521 18.0873 112.507 19.1273 112.507 20.7393V27.8633ZM124.816 12.8353C123.542 12.8353 122.528 11.8213 122.528 10.5473C122.528 9.27328 123.542 8.28528 124.816 8.28528C126.064 8.28528 127.078 9.27328 127.078 10.5473C127.078 11.8213 126.064 12.8353 124.816 12.8353ZM122.84 27.8633V14.8633H126.844V27.8633H122.84ZM133.67 27.8633H129.666V18.1913H127.196V14.8633H129.666V10.8333H133.67V14.8633H136.14V18.1913H133.67V27.8633ZM135.469 34.1033V30.7493H137.679C139.031 30.7493 139.603 30.3333 140.123 28.9293L140.357 28.3053L135.131 14.8633H139.421L142.255 23.2093L145.401 14.8633H149.561L142.957 30.6973C141.865 33.3493 140.409 34.4673 138.121 34.4673C137.159 34.4673 136.249 34.3373 135.469 34.1033Z" fill="#9D9D9D"/>
<circle opacity="0.3" cx="16.5" cy="17.3633" r="16.5" fill="#9D9D9D"/>
<circle cx="16.4998" cy="17.3631" r="8.88461" fill="#9D9D9D"/>
</svg>
