<svg width="147" height="31" viewBox="0 0 147 31" fill="none" xmlns="http://www.w3.org/2000/svg">
<g opacity="0.2">
<g opacity="0.3">
<path d="M28.4485 14.1268C28.4485 21.9289 22.1237 28.2536 14.3216 28.2536C6.51962 28.2536 0.194824 21.9289 0.194824 14.1268C0.194824 6.32479 6.51962 0 14.3216 0C22.1237 0 28.4485 6.32479 28.4485 14.1268Z" fill="#9D9D9D"/>
<path d="M28.4485 14.1268C28.4485 21.9289 22.1237 28.2536 14.3216 28.2536C6.51962 28.2536 0.194824 21.9289 0.194824 14.1268C0.194824 6.32479 6.51962 0 14.3216 0C22.1237 0 28.4485 6.32479 28.4485 14.1268Z" fill="black"/>
</g>
<path d="M132.069 30.4572V27.0531H134.312C135.684 27.0531 136.265 26.6309 136.793 25.2059L137.03 24.5726L131.726 10.9297H136.08L138.957 19.4004L142.15 10.9297H146.372L139.669 27.0003C138.561 29.6919 137.083 30.8266 134.761 30.8266C133.784 30.8266 132.861 30.6947 132.069 30.4572Z" fill="black"/>
<path d="M130.641 24.1243H126.577V14.3078H124.07V10.9301H126.577V6.83984H130.641V10.9301H133.147V14.3078H130.641V24.1243Z" fill="black"/>
<path d="M121.044 8.8758C119.751 8.8758 118.722 7.84665 118.722 6.55361C118.722 5.26058 119.751 4.25781 121.044 4.25781C122.311 4.25781 123.34 5.26058 123.34 6.55361C123.34 7.84665 122.311 8.8758 121.044 8.8758ZM119.039 24.1284V10.9341H123.103V24.1284H119.039Z" fill="black"/>
<path d="M108.95 24.1243H104.886V10.93H108.713L108.976 12.3022C109.794 11.1675 111.299 10.5078 113.014 10.5078C116.154 10.5078 117.975 12.5133 117.975 15.9702V24.1243H113.911V16.9466C113.911 15.2841 112.988 14.2022 111.589 14.2022C109.979 14.2022 108.95 15.2577 108.95 16.8938V24.1243Z" fill="black"/>
<path d="M97.1466 24.4673C93.162 24.4673 90.312 21.5646 90.312 17.5008C90.312 13.3842 93.0828 10.5078 97.0675 10.5078C101.21 10.5078 103.797 13.2258 103.797 17.5272V18.5563L94.2175 18.6091C94.455 20.3507 95.4314 21.1688 97.2258 21.1688C98.7563 21.1688 99.8383 20.6146 100.129 19.6646H103.849C103.374 22.5938 100.762 24.4673 97.1466 24.4673ZM97.0939 13.8064C95.4842 13.8064 94.587 14.5189 94.2703 16.1022H99.7591C99.7591 14.7036 98.7299 13.8064 97.0939 13.8064Z" fill="black"/>
<path d="M83.0255 24.4673C79.0409 24.4673 76.1909 21.5646 76.1909 17.5008C76.1909 13.3842 78.9617 10.5078 82.9464 10.5078C87.0894 10.5078 89.6755 13.2258 89.6755 17.5272V18.5563L80.0964 18.6091C80.3339 20.3507 81.3103 21.1688 83.1047 21.1688C84.6352 21.1688 85.7172 20.6146 86.0075 19.6646H89.7282C89.2532 22.5938 86.6408 24.4673 83.0255 24.4673ZM82.9728 13.8064C81.3631 13.8064 80.4659 14.5189 80.1492 16.1022H85.638C85.638 14.7036 84.6089 13.8064 82.9728 13.8064Z" fill="black"/>
<path d="M76.2881 10.9269V14.7532H74.9951C72.6729 14.7532 71.2743 15.7824 71.2743 18.3949V24.1212H67.2104V10.9533H71.0368L71.2479 12.906C71.8021 11.613 72.9631 10.7422 74.7312 10.7422C75.2062 10.7422 75.7339 10.795 76.2881 10.9269Z" fill="black"/>
<path d="M52.7925 17.4744C52.7925 13.4105 55.5897 10.5078 59.5479 10.5078C63.4534 10.5078 66.0395 12.6453 66.3034 16.1022H62.2132C61.9229 14.7828 61.1049 14.1494 59.7063 14.1494C57.991 14.1494 56.8827 15.4425 56.8827 17.4744C56.8827 19.5855 57.9119 20.8257 59.6535 20.8257C61.0785 20.8257 61.9493 20.166 62.2132 18.873H66.3034C66.0395 22.1979 63.3479 24.4673 59.6535 24.4673C55.4841 24.4673 52.7925 21.6965 52.7925 17.4744Z" fill="black"/>
<path d="M37.6374 10.2695C37.6374 6.73347 40.6193 4.22656 44.8151 4.22656C49.0109 4.22656 51.6497 6.54875 51.6497 10.2431H47.4012C47.4012 8.87094 46.372 8.02651 44.7623 8.02651C43.0207 8.02651 41.9124 8.81816 41.9124 10.1112C41.9124 11.2987 42.5193 11.8792 43.8915 12.1695L46.8206 12.7764C50.3039 13.4889 51.9664 15.1514 51.9664 18.2389C51.9664 22.0124 49.0109 24.4666 44.5248 24.4666C40.1707 24.4666 37.3472 22.118 37.3472 18.45H41.5957C41.5957 19.875 42.6513 20.6666 44.5512 20.6666C46.4776 20.6666 47.6915 19.9013 47.6915 18.6611C47.6915 17.5792 47.1901 17.025 45.897 16.7611L42.9151 16.1542C39.4319 15.4417 37.6374 13.4625 37.6374 10.2695Z" fill="black"/>
<circle cx="14.5208" cy="14.2088" r="8.52129" fill="black"/>
<path d="M22.0278 14.1274C22.0278 18.3831 18.5779 21.833 14.3222 21.833C10.0666 21.833 6.6167 18.3831 6.6167 14.1274C6.6167 9.87176 10.0666 6.42188 14.3222 6.42188C18.5779 6.42188 22.0278 9.87176 22.0278 14.1274Z" fill="#9D9D9D"/>
<path d="M22.0278 14.1274C22.0278 18.3831 18.5779 21.833 14.3222 21.833C10.0666 21.833 6.6167 18.3831 6.6167 14.1274C6.6167 9.87176 10.0666 6.42188 14.3222 6.42188C18.5779 6.42188 22.0278 9.87176 22.0278 14.1274Z" fill="black"/>
</g>
</svg>
