<svg width="16" height="16" viewBox="0 0 16 16" fill="none" xmlns="http://www.w3.org/2000/svg">
<path d="M7.89062 12.1484V14.5188" stroke="#A9A9B1" stroke-width="1.5" stroke-linecap="round" stroke-linejoin="round"/>
<path d="M5.66797 14.5176H10.1124" stroke="#A9A9B1" stroke-width="1.5" stroke-linecap="round" stroke-linejoin="round"/>
<path fill-rule="evenodd" clip-rule="evenodd" d="M11.0278 7.97516V7.99964C11.0278 8.53533 10.911 9.05513 10.6952 9.52124L11.803 10.6291C12.0502 10.2188 12.2374 9.77301 12.3596 9.30695L11.0278 7.97516ZM12.5278 7.35384V6.81445C12.5278 6.40024 12.192 6.06445 11.7778 6.06445C11.6245 6.06445 11.482 6.11042 11.3633 6.18932L12.5278 7.35384ZM7.88889 11.3978C8.56577 11.3978 9.22696 11.1603 9.77113 10.7185L10.8356 11.783C10.0136 12.4967 8.97465 12.8978 7.88889 12.8978C6.64239 12.8978 5.45755 12.3692 4.59188 11.4458C3.72774 10.524 3.25 9.28365 3.25 7.99964V6.81445C3.25 6.40024 3.58579 6.06445 4 6.06445C4.41421 6.06445 4.75 6.40024 4.75 6.81445V7.99964C4.75 8.91594 5.0917 9.78575 5.68618 10.4199C6.27913 11.0523 7.0726 11.3978 7.88889 11.3978Z" fill="#A9A9B1"/>
<path fill-rule="evenodd" clip-rule="evenodd" d="M5.47266 3.2602C5.47266 3.00973 5.50824 2.76187 5.57719 2.52457L6.97266 3.92004V5.79871L5.47266 4.29871V3.2602ZM5.47266 6.42004V8.00094C5.47266 8.65629 5.71627 9.29376 6.16366 9.77098C6.61258 10.2498 7.23219 10.5287 7.88932 10.5287C8.35667 10.5287 8.80505 10.3877 9.18654 10.1339L8.06265 9.01003C8.00538 9.02247 7.94731 9.02872 7.88932 9.02872C7.6624 9.02872 7.43416 8.93301 7.25796 8.74506C7.08023 8.55548 6.97266 8.28858 6.97266 8.00094V7.92004L5.47266 6.42004ZM8.80599 7.63205L10.1278 8.95388C10.2449 8.65262 10.306 8.32902 10.306 8.00094V7.25337L8.80599 5.75337V7.63205ZM8.80599 3.2602V3.63205L10.306 5.13205V3.2602C10.306 2.60485 10.0624 1.96738 9.61499 1.49017C9.16606 1.01131 8.54645 0.732422 7.88932 0.732422C7.35133 0.732422 6.83848 0.919357 6.42386 1.24991L7.50272 2.32878C7.62504 2.26477 7.7574 2.23242 7.88932 2.23242C8.11625 2.23242 8.34448 2.32813 8.52068 2.51608C8.69842 2.70566 8.80599 2.97256 8.80599 3.2602Z" fill="#A9A9B1"/>
<path d="M3 1L15 13" stroke="#A9A9B1" stroke-width="1.5" stroke-linecap="round" stroke-linejoin="round"/>
</svg>
