<svg width="17" height="12" viewBox="0 0 17 12" fill="none" xmlns="http://www.w3.org/2000/svg">
<path fill-rule="evenodd" clip-rule="evenodd" d="M3.00078 1.80078H9.60078C10.2635 1.80078 10.8008 2.33804 10.8008 3.00078V6V9.00078C10.8008 9.66352 10.2635 10.2008 9.60078 10.2008H3.00078C2.33804 10.2008 1.80078 9.66352 1.80078 9.00078V3.00078C1.80078 2.33804 2.33804 1.80078 3.00078 1.80078ZM10.8008 6L15.0008 9V3L10.8008 6Z" fill="#3080F8"/>
<path d="M15.0008 9L14.5649 9.6103C14.7935 9.77359 15.0942 9.79543 15.344 9.66688C15.5938 9.53832 15.7508 9.28094 15.7508 9H15.0008ZM15.0008 3H15.7508C15.7508 2.71906 15.5938 2.46168 15.344 2.33312C15.0942 2.20457 14.7935 2.22641 14.5649 2.3897L15.0008 3ZM9.60078 1.05078H3.00078V2.55078H9.60078V1.05078ZM11.5508 3.00078C11.5508 1.92383 10.6777 1.05078 9.60078 1.05078V2.55078C9.84931 2.55078 10.0508 2.75225 10.0508 3.00078H11.5508ZM11.5508 6V3.00078H10.0508V6H11.5508ZM11.5508 9.00078V6H10.0508V9.00078H11.5508ZM9.60078 10.9508C10.6777 10.9508 11.5508 10.0777 11.5508 9.00078H10.0508C10.0508 9.24931 9.84931 9.45078 9.60078 9.45078V10.9508ZM3.00078 10.9508H9.60078V9.45078H3.00078V10.9508ZM1.05078 9.00078C1.05078 10.0777 1.92383 10.9508 3.00078 10.9508V9.45078C2.75225 9.45078 2.55078 9.24931 2.55078 9.00078H1.05078ZM1.05078 3.00078V9.00078H2.55078V3.00078H1.05078ZM3.00078 1.05078C1.92383 1.05078 1.05078 1.92383 1.05078 3.00078H2.55078C2.55078 2.75225 2.75225 2.55078 3.00078 2.55078V1.05078ZM10.3649 6.6103L14.5649 9.6103L15.4367 8.3897L11.2367 5.3897L10.3649 6.6103ZM15.7508 9V3H14.2508V9H15.7508ZM14.5649 2.3897L10.3649 5.3897L11.2367 6.6103L15.4367 3.6103L14.5649 2.3897Z" fill="#3080F8"/>
</svg>
