<svg width="337" height="9" viewBox="0 0 337 9" fill="none" xmlns="http://www.w3.org/2000/svg">
<path d="M1 5H105.382C106.456 5 107.495 4.62477 108.321 3.93923V3.93923C110.026 2.52486 112.496 2.52486 114.2 3.93923L115.78 5.25C118.4 7.4244 122.197 7.4244 124.817 5.25L127.675 2.87845C131.084 0.0497218 136.024 0.0497271 139.433 2.87845V2.87845C141.085 4.24954 143.164 5 145.311 5H181.681C184.527 5 187.358 5.41781 190.082 6.24007V6.24007C196.024 8.0329 202.382 7.87826 208.229 5.79878L209.817 5.23431C216.64 2.80753 224.058 2.60879 231.001 4.66672L235.4 5.97022C242.134 7.96604 249.222 8.46894 256.17 7.44384L265.973 5.99768C270.475 5.33345 275.02 5 279.571 5H336" stroke="#78C072" stroke-width="1.5" stroke-linecap="round"/>
</svg>
