<svg width="38" height="38" viewBox="0 0 38 38" fill="none" xmlns="http://www.w3.org/2000/svg">
<path d="M30.0833 33.25H7.91667C7.07681 33.25 6.27136 32.9164 5.6775 32.3225C5.08363 31.7286 4.75 30.9232 4.75 30.0833V7.91667C4.75 7.07681 5.08363 6.27136 5.6775 5.6775C6.27136 5.08363 7.07681 4.75 7.91667 4.75H25.3333L33.25 12.6667V30.0833C33.25 30.9232 32.9164 31.7286 32.3225 32.3225C31.7286 32.9164 30.9232 33.25 30.0833 33.25Z" stroke="#3080F8" stroke-width="2" stroke-linecap="round" stroke-linejoin="round"/>
<path fill-rule="evenodd" clip-rule="evenodd" d="M10 12V4.75H7.91667C7.07681 4.75 6.27136 5.08363 5.6775 5.6775C5.08363 6.27136 4.75 7.07681 4.75 7.91667V30.0833C4.75 30.9232 5.08363 31.7286 5.6775 32.3225C6.27136 32.9164 7.07681 33.25 7.91667 33.25H10V23C10 21.8954 10.8954 21 12 21H26C27.1046 21 28 21.8954 28 23V33.25H30.0833C30.9232 33.25 31.7286 32.9164 32.3225 32.3225C32.9164 31.7286 33.25 30.9232 33.25 30.0833V12.6667L25.3333 4.75H24V12C24 13.1046 23.1046 14 22 14H12C10.8954 14 10 13.1046 10 12Z" fill="#3080F8"/>
<path d="M10 4.75H11C11 4.19772 10.5523 3.75 10 3.75V4.75ZM5.6775 5.6775L4.97039 4.97039L4.97039 4.97039L5.6775 5.6775ZM5.6775 32.3225L6.3846 31.6154L6.3846 31.6154L5.6775 32.3225ZM10 33.25V34.25C10.5523 34.25 11 33.8023 11 33.25H10ZM28 33.25H27C27 33.8023 27.4477 34.25 28 34.25V33.25ZM32.3225 32.3225L31.6154 31.6154L31.6154 31.6154L32.3225 32.3225ZM33.25 12.6667H34.25C34.25 12.4015 34.1446 12.1471 33.9571 11.9596L33.25 12.6667ZM25.3333 4.75L26.0404 4.04289C25.8529 3.85536 25.5986 3.75 25.3333 3.75V4.75ZM24 4.75V3.75C23.4477 3.75 23 4.19772 23 4.75H24ZM9 4.75V12H11V4.75H9ZM7.91667 5.75H10V3.75H7.91667V5.75ZM6.3846 6.3846C6.79093 5.97827 7.34203 5.75 7.91667 5.75V3.75C6.8116 3.75 5.75179 4.18899 4.97039 4.97039L6.3846 6.3846ZM5.75 7.91667C5.75 7.34203 5.97827 6.79093 6.3846 6.3846L4.97039 4.97039C4.18899 5.75179 3.75 6.8116 3.75 7.91667H5.75ZM5.75 30.0833V7.91667H3.75V30.0833H5.75ZM6.3846 31.6154C5.97827 31.2091 5.75 30.658 5.75 30.0833H3.75C3.75 31.1884 4.18899 32.2482 4.97039 33.0296L6.3846 31.6154ZM7.91667 32.25C7.34203 32.25 6.79093 32.0217 6.3846 31.6154L4.97039 33.0296C5.75179 33.811 6.8116 34.25 7.91667 34.25V32.25ZM10 32.25H7.91667V34.25H10V32.25ZM9 23V33.25H11V23H9ZM12 20C10.3431 20 9 21.3431 9 23H11C11 22.4477 11.4477 22 12 22V20ZM26 20H12V22H26V20ZM29 23C29 21.3431 27.6569 20 26 20V22C26.5523 22 27 22.4477 27 23H29ZM29 33.25V23H27V33.25H29ZM30.0833 32.25H28V34.25H30.0833V32.25ZM31.6154 31.6154C31.2091 32.0217 30.658 32.25 30.0833 32.25V34.25C31.1884 34.25 32.2482 33.811 33.0296 33.0296L31.6154 31.6154ZM32.25 30.0833C32.25 30.658 32.0217 31.2091 31.6154 31.6154L33.0296 33.0296C33.811 32.2482 34.25 31.1884 34.25 30.0833H32.25ZM32.25 12.6667V30.0833H34.25V12.6667H32.25ZM24.6262 5.45711L32.5429 13.3738L33.9571 11.9596L26.0404 4.04289L24.6262 5.45711ZM24 5.75H25.3333V3.75H24V5.75ZM25 12V4.75H23V12H25ZM22 15C23.6569 15 25 13.6569 25 12H23C23 12.5523 22.5523 13 22 13V15ZM12 15H22V13H12V15ZM9 12C9 13.6569 10.3431 15 12 15V13C11.4477 13 11 12.5523 11 12H9Z" fill="#3080F8"/>
</svg>
