<svg width="14" height="14" viewBox="0 0 14 14" fill="none" xmlns="http://www.w3.org/2000/svg">
<path d="M7.0013 7.58268C7.32347 7.58268 7.58464 7.32152 7.58464 6.99935C7.58464 6.67718 7.32347 6.41602 7.0013 6.41602C6.67914 6.41602 6.41797 6.67718 6.41797 6.99935C6.41797 7.32152 6.67914 7.58268 7.0013 7.58268Z" fill="#6E7684" stroke="#6E7684" stroke-width="1.5" stroke-linecap="round" stroke-linejoin="round"/>
<path d="M11.0833 7.58268C11.4055 7.58268 11.6667 7.32152 11.6667 6.99935C11.6667 6.67718 11.4055 6.41602 11.0833 6.41602C10.7612 6.41602 10.5 6.67718 10.5 6.99935C10.5 7.32152 10.7612 7.58268 11.0833 7.58268Z" fill="#6E7684" stroke="#6E7684" stroke-width="1.5" stroke-linecap="round" stroke-linejoin="round"/>
<path d="M2.91536 7.58268C3.23753 7.58268 3.4987 7.32152 3.4987 6.99935C3.4987 6.67718 3.23753 6.41602 2.91536 6.41602C2.5932 6.41602 2.33203 6.67718 2.33203 6.99935C2.33203 7.32152 2.5932 7.58268 2.91536 7.58268Z" fill="#6E7684" stroke="#6E7684" stroke-width="1.5" stroke-linecap="round" stroke-linejoin="round"/>
</svg>
