<svg width="165" height="165" viewBox="0 0 165 165" fill="none" xmlns="http://www.w3.org/2000/svg">
<rect width="165" height="165" fill="black"/>
<path d="M32.097 94.472H29.843V98H28.051V87.766H32.097C34.155 87.766 35.485 89.11 35.485 91.112C35.485 93.086 34.141 94.472 32.097 94.472ZM31.747 89.362H29.843V92.876H31.719C32.951 92.876 33.609 92.218 33.609 91.098C33.609 89.978 32.937 89.362 31.747 89.362ZM37.5944 89.698C37.0064 89.698 36.5444 89.236 36.5444 88.662C36.5444 88.088 37.0064 87.64 37.5944 87.64C38.1544 87.64 38.6164 88.088 38.6164 88.662C38.6164 89.236 38.1544 89.698 37.5944 89.698ZM36.7404 98V91.084H38.4484V98H36.7404ZM39.8071 94.528C39.8071 92.386 41.2211 90.874 43.2651 90.874C45.1551 90.874 46.4431 91.924 46.6251 93.59H44.9171C44.7211 92.806 44.1471 92.4 43.3351 92.4C42.2431 92.4 41.5151 93.226 41.5151 94.528C41.5151 95.83 42.1871 96.642 43.2791 96.642C44.1331 96.642 44.7351 96.222 44.9171 95.466H46.6391C46.4291 97.076 45.0851 98.182 43.2791 98.182C41.1791 98.182 39.8071 96.726 39.8071 94.528ZM50.2623 98H48.5543V92.512H47.2243V91.084H48.5543V88.928H50.2623V91.084H51.6063V92.512H50.2623V98ZM57.3581 91.084H59.0661V98H57.4841L57.3581 97.076C56.9381 97.734 56.0421 98.182 55.1181 98.182C53.5221 98.182 52.5841 97.104 52.5841 95.41V91.084H54.2921V94.808C54.2921 96.124 54.8101 96.656 55.7621 96.656C56.8401 96.656 57.3581 96.026 57.3581 94.71V91.084ZM65.1702 91.056V92.638H64.5402C63.3082 92.638 62.5382 93.296 62.5382 94.64V98H60.8302V91.098H62.4402L62.5382 92.106C62.8322 91.42 63.4902 90.958 64.4142 90.958C64.6522 90.958 64.8902 90.986 65.1702 91.056ZM69.1879 98.182C67.1299 98.182 65.6879 96.684 65.6879 94.542C65.6879 92.372 67.1019 90.874 69.1319 90.874C71.2039 90.874 72.5199 92.26 72.5199 94.416V94.934L67.3119 94.948C67.4379 96.166 68.0819 96.782 69.2159 96.782C70.1539 96.782 70.7699 96.418 70.9659 95.76H72.5479C72.2539 97.272 70.9939 98.182 69.1879 98.182ZM69.1459 92.274C68.1379 92.274 67.5219 92.82 67.3539 93.856H70.8259C70.8259 92.904 70.1679 92.274 69.1459 92.274ZM78.5143 89.698C77.9263 89.698 77.4643 89.236 77.4643 88.662C77.4643 88.088 77.9263 87.64 78.5143 87.64C79.0743 87.64 79.5363 88.088 79.5363 88.662C79.5363 89.236 79.0743 89.698 78.5143 89.698ZM77.6603 98V91.084H79.3683V98H77.6603ZM82.841 98H81.133V91.084H82.715L82.855 91.98C83.289 91.28 84.129 90.874 85.067 90.874C86.803 90.874 87.699 91.952 87.699 93.744V98H85.991V94.15C85.991 92.988 85.417 92.428 84.535 92.428C83.485 92.428 82.841 93.156 82.841 94.276V98ZM93.1506 101.206V91.084H94.7326L94.8446 92.134C95.2646 91.336 96.1746 90.874 97.2246 90.874C99.1706 90.874 100.459 92.288 100.459 94.458C100.459 96.614 99.2826 98.182 97.2246 98.182C96.1886 98.182 95.2926 97.776 94.8586 97.076V101.206H93.1506ZM94.8726 94.542C94.8726 95.788 95.6426 96.642 96.8186 96.642C98.0226 96.642 98.7366 95.774 98.7366 94.542C98.7366 93.31 98.0226 92.428 96.8186 92.428C95.6426 92.428 94.8726 93.296 94.8726 94.542ZM102.673 89.698C102.085 89.698 101.623 89.236 101.623 88.662C101.623 88.088 102.085 87.64 102.673 87.64C103.233 87.64 103.695 88.088 103.695 88.662C103.695 89.236 103.233 89.698 102.673 89.698ZM101.819 98V91.084H103.527V98H101.819ZM104.885 94.528C104.885 92.386 106.299 90.874 108.343 90.874C110.233 90.874 111.521 91.924 111.703 93.59H109.995C109.799 92.806 109.225 92.4 108.413 92.4C107.321 92.4 106.593 93.226 106.593 94.528C106.593 95.83 107.265 96.642 108.357 96.642C109.211 96.642 109.813 96.222 109.995 95.466H111.717C111.507 97.076 110.163 98.182 108.357 98.182C106.257 98.182 104.885 96.726 104.885 94.528ZM115.34 98H113.632V92.512H112.302V91.084H113.632V88.928H115.34V91.084H116.684V92.512H115.34V98ZM122.436 91.084H124.144V98H122.562L122.436 97.076C122.016 97.734 121.12 98.182 120.196 98.182C118.6 98.182 117.662 97.104 117.662 95.41V91.084H119.37V94.808C119.37 96.124 119.888 96.656 120.84 96.656C121.918 96.656 122.436 96.026 122.436 94.71V91.084ZM130.248 91.056V92.638H129.618C128.386 92.638 127.616 93.296 127.616 94.64V98H125.908V91.098H127.518L127.616 92.106C127.91 91.42 128.568 90.958 129.492 90.958C129.73 90.958 129.968 90.986 130.248 91.056ZM134.266 98.182C132.208 98.182 130.766 96.684 130.766 94.542C130.766 92.372 132.18 90.874 134.21 90.874C136.282 90.874 137.598 92.26 137.598 94.416V94.934L132.39 94.948C132.516 96.166 133.16 96.782 134.294 96.782C135.232 96.782 135.848 96.418 136.044 95.76H137.626C137.332 97.272 136.072 98.182 134.266 98.182ZM134.224 92.274C133.216 92.274 132.6 92.82 132.432 93.856H135.904C135.904 92.904 135.246 92.274 134.224 92.274ZM66.4963 117H64.7883V110.084H66.3563L66.4963 110.896C66.8463 110.322 67.5463 109.874 68.5403 109.874C69.5903 109.874 70.3183 110.392 70.6823 111.19C71.0323 110.392 71.8443 109.874 72.8943 109.874C74.5743 109.874 75.4983 110.882 75.4983 112.478V117H73.8043V112.926C73.8043 111.932 73.2723 111.414 72.4603 111.414C71.6343 111.414 71.0043 111.946 71.0043 113.08V117H69.2963V112.912C69.2963 111.946 68.7783 111.428 67.9663 111.428C67.1543 111.428 66.4963 111.96 66.4963 113.08V117ZM76.769 113.528C76.769 111.372 78.323 109.888 80.465 109.888C82.607 109.888 84.161 111.372 84.161 113.528C84.161 115.684 82.607 117.168 80.465 117.168C78.323 117.168 76.769 115.684 76.769 113.528ZM78.477 113.528C78.477 114.788 79.289 115.642 80.465 115.642C81.641 115.642 82.453 114.788 82.453 113.528C82.453 112.268 81.641 111.414 80.465 111.414C79.289 111.414 78.477 112.268 78.477 113.528ZM88.3568 117.182C86.3548 117.182 85.1088 115.712 85.1088 113.57C85.1088 111.414 86.3688 109.874 88.4548 109.874C89.4208 109.874 90.2748 110.28 90.7088 110.966V106.584H92.4028V117H90.8348L90.7228 115.922C90.3028 116.72 89.4068 117.182 88.3568 117.182ZM88.7348 115.614C89.9248 115.614 90.6948 114.76 90.6948 113.514C90.6948 112.268 89.9248 111.4 88.7348 111.4C87.5448 111.4 86.8168 112.282 86.8168 113.514C86.8168 114.746 87.5448 115.614 88.7348 115.614ZM97.2768 117.182C95.2188 117.182 93.7768 115.684 93.7768 113.542C93.7768 111.372 95.1908 109.874 97.2208 109.874C99.2928 109.874 100.609 111.26 100.609 113.416V113.934L95.4008 113.948C95.5268 115.166 96.1708 115.782 97.3048 115.782C98.2428 115.782 98.8588 115.418 99.0548 114.76H100.637C100.343 116.272 99.0828 117.182 97.2768 117.182ZM97.2348 111.274C96.2268 111.274 95.6108 111.82 95.4428 112.856H98.9148C98.9148 111.904 98.2568 111.274 97.2348 111.274Z" fill="white"/>
<path fill-rule="evenodd" clip-rule="evenodd" d="M69.8555 55.4283C69.8555 51.9568 72.6697 49.1426 76.1412 49.1426H89.8555C93.327 49.1426 96.1412 51.9568 96.1412 55.4283V57.714H92.7126V55.4283C92.7126 53.8503 91.4334 52.5711 89.8555 52.5711H76.1412C74.5632 52.5711 73.284 53.8503 73.284 55.4283V64.5711C73.284 66.1491 74.5632 67.4283 76.1412 67.4283H82.9983V70.8569H76.1412C72.6697 70.8569 69.8555 68.0427 69.8555 64.5711V55.4283Z" fill="white"/>
<path fill-rule="evenodd" clip-rule="evenodd" d="M85.2169 59.9298C85.8864 59.2604 86.9718 59.2604 87.6413 59.9298L92.7148 65.0034V62.2849C92.7148 61.3381 93.4824 60.5706 94.4291 60.5706C95.3759 60.5706 96.1434 61.3381 96.1434 62.2849V69.142C96.1434 70.0888 95.3759 70.8563 94.4291 70.8563H87.572C86.6252 70.8563 85.8577 70.0888 85.8577 69.142C85.8577 68.1952 86.6252 67.4277 87.572 67.4277H90.2905L85.2169 62.3542C84.5475 61.6847 84.5475 60.5993 85.2169 59.9298Z" fill="white"/>
</svg>
