<svg width="16" height="17" viewBox="0 0 16 17" fill="none" xmlns="http://www.w3.org/2000/svg">
<g clip-path="url(#clip0_2476_335)">
<path d="M16 3.53933C15.4113 3.80067 14.7787 3.97667 14.1147 4.056C14.7927 3.65 15.3133 3.00667 15.558 2.24C14.924 2.616 14.2213 2.88933 13.4733 3.03667C12.8753 2.39867 12.0213 2 11.0773 2C8.958 2 7.40067 3.97733 7.87933 6.03C5.152 5.89333 2.73333 4.58667 1.114 2.60067C0.254 4.076 0.668 6.006 2.12933 6.98333C1.592 6.966 1.08533 6.81867 0.643333 6.57267C0.607333 8.09333 1.69733 9.516 3.276 9.83267C2.814 9.958 2.308 9.98733 1.79333 9.88867C2.21067 11.1927 3.42267 12.1413 4.86 12.168C3.48 13.25 1.74133 13.7333 0 13.528C1.45267 14.4593 3.17867 15.0027 5.032 15.0027C11.1267 15.0027 14.57 9.85533 14.362 5.23867C15.0033 4.77533 15.56 4.19733 16 3.53933Z" fill="white"/>
</g>
<defs>
<clipPath id="clip0_2476_335">
<rect width="16" height="16" fill="white" transform="translate(0 0.5)"/>
</clipPath>
</defs>
</svg>
